<svg xmlns="http://www.w3.org/2000/svg" version="1.1" xmlns:xlink="http://www.w3.org/1999/xlink" xmlns:svgjs="http://svgjs.dev/svgjs" width="1500" height="1500" viewBox="0 0 1500 1500"><rect width="1500" height="1500" fill="#ffffff"></rect><g transform="matrix(0.6666666666666666,0,0,0.6666666666666666,249.39393939393938,671.0233553966859)"><svg viewBox="0 0 396 62" data-background-color="#f6efd1" preserveAspectRatio="xMidYMid meet" height="234" width="1500" xmlns="http://www.w3.org/2000/svg" xmlns:xlink="http://www.w3.org/1999/xlink"><g id="tight-bounds" transform="matrix(1,0,0,1,0.2400000000000091,0.3881536243940218)"><svg viewBox="0 0 395.52 61.22369275121193" height="61.22369275121193" width="395.52"><g><svg viewBox="0 0 506.42401320310887 78.39084796263863" height="61.22369275121193" width="395.52"><g><rect width="5.115316619845043" height="57.00636917688264" x="92.39781537948103" y="10.692239392877994" fill="#000000" opacity="1" stroke-width="0" stroke="transparent" fill-opacity="1" class="rect-yte-0" data-fill-palette-color="primary" rx="1%" id="yte-0" data-palette-color="#070707"></rect></g><g transform="matrix(1,0,0,1,110.90401320310892,10.834046281377699)"><svg viewBox="0 0 395.52 56.72275539988323" height="56.72275539988323" width="395.52"><g id="textblocktransform"><svg viewBox="0 0 395.52 56.72275539988323" height="56.72275539988323" width="395.52" id="textblock"><g><svg viewBox="0 0 395.52 56.72275539988323" height="56.72275539988323" width="395.52"><g transform="matrix(1,0,0,1,0,0)"><svg width="395.52" viewBox="2.5 -36.05 257.52 36.849999999999994" height="56.72275539988323" data-palette-color="#070707"><g class="wordmark-text-0" data-fill-palette-color="primary" id="text-0"><path d="M7.05-8.55L2.5-8.55 2.5-26.7 7.05-26.7 7.05-8.55ZM7.05-26.7L2.5-26.7Q2.5-29.45 3.75-31.58 5-33.7 7.25-34.88 9.5-36.05 12.4-36.05L12.4-36.05 12.4-32.1Q9.9-32.1 8.47-30.7 7.05-29.3 7.05-26.7L7.05-26.7ZM2.5-8.6L2.5-8.6 7.05-8.6Q7.05-6 8.47-4.58 9.9-3.15 12.4-3.15L12.4-3.15 12.4 0.8Q9.5 0.8 7.25-0.4 5-1.6 3.75-3.7 2.5-5.8 2.5-8.6ZM22.5-26.25L18.35-25.4Q18.05-28.55 16.48-30.33 14.9-32.1 12.35-32.1L12.35-32.1 12.35-36.05Q16.6-36.05 19.28-33.45 21.95-30.85 22.5-26.25L22.5-26.25ZM18.35-9.85L18.35-9.85 22.5-9.05Q21.95-4.4 19.28-1.8 16.6 0.8 12.35 0.8L12.35 0.8 12.35-3.15Q14.9-3.15 16.48-4.93 18.05-6.7 18.35-9.85ZM44.35-8.95L39.8-8.95 39.8-16.3 44.35-16.3 44.35-8.95ZM30.3-8.95L25.75-8.95 25.75-16.3 30.3-16.3 30.3-8.95ZM35.2-22.05L34.9-22.05 34.9-26 35.2-26 35.2-22.05ZM35.2 0.75L34.9 0.75 34.9-3.2 35.2-3.2 35.2 0.75ZM30.3-16.25L25.75-16.25Q25.75-19.05 26.97-21.25 28.2-23.45 30.27-24.73 32.35-26 35-26L35-26 35-22.05Q32.8-22.05 31.55-20.55 30.3-19.05 30.3-16.25L30.3-16.25ZM44.35-16.25L44.35-16.25 39.8-16.25Q39.8-19.05 38.57-20.55 37.35-22.05 35.1-22.05L35.1-22.05 35.1-26Q37.75-26 39.82-24.73 41.9-23.45 43.12-21.25 44.35-19.05 44.35-16.25ZM25.75-9L25.75-9 30.3-9Q30.3-6.25 31.55-4.73 32.8-3.2 35-3.2L35-3.2 35 0.75Q32.35 0.75 30.27-0.53 28.2-1.8 26.97-4 25.75-6.2 25.75-9ZM39.8-9L44.35-9Q44.35-6.2 43.12-4 41.9-1.8 39.82-0.53 37.75 0.75 35.1 0.75L35.1 0.75 35.1-3.2Q37.35-3.2 38.57-4.73 39.8-6.25 39.8-9L39.8-9ZM66.44-8.95L61.89-8.95 61.89-16.3 66.44-16.3 66.44-8.95ZM52.39-8.95L47.84-8.95 47.84-16.3 52.39-16.3 52.39-8.95ZM57.3-22.05L56.99-22.05 56.99-26 57.3-26 57.3-22.05ZM57.3 0.75L56.99 0.75 56.99-3.2 57.3-3.2 57.3 0.75ZM52.39-16.25L47.84-16.25Q47.84-19.05 49.07-21.25 50.3-23.45 52.37-24.73 54.45-26 57.09-26L57.09-26 57.09-22.05Q54.89-22.05 53.64-20.55 52.39-19.05 52.39-16.25L52.39-16.25ZM66.44-16.25L66.44-16.25 61.89-16.25Q61.89-19.05 60.67-20.55 59.45-22.05 57.2-22.05L57.2-22.05 57.2-26Q59.84-26 61.92-24.73 64-23.45 65.22-21.25 66.44-19.05 66.44-16.25ZM47.84-9L47.84-9 52.39-9Q52.39-6.25 53.64-4.73 54.89-3.2 57.09-3.2L57.09-3.2 57.09 0.75Q54.45 0.75 52.37-0.53 50.3-1.8 49.07-4 47.84-6.2 47.84-9ZM61.89-9L66.44-9Q66.44-6.2 65.22-4 64-1.8 61.92-0.53 59.84 0.75 57.2 0.75L57.2 0.75 57.2-3.2Q59.45-3.2 60.67-4.73 61.89-6.25 61.89-9L61.89-9ZM88.64 0L83.89 0 74.94-13.95 79.29-15.4 88.64 0ZM88.04-25.25L75.09-9 71.59-11.35 82.54-25.25 88.04-25.25ZM75.74 0L71.19 0 71.19-36 75.74-36 75.74 0ZM100.54-16.55L100.54-16.55 100.54-20.25Q103.04-20.25 104.44-21.75 105.84-23.25 105.84-25.95L105.84-25.95 110.39-25.95Q110.39-23.25 109.12-21.13 107.84-19 105.59-17.78 103.34-16.55 100.54-16.55ZM101.04 0L96.19 0 96.19-3.95 101.04-3.95 101.04 0ZM101.04-16.3L96.19-16.3 96.19-20.25 101.04-20.25 101.04-16.3ZM110.89-9.35L106.34-9.35 106.34-10.55 110.89-10.55 110.89-9.35ZM110.89-10.5L106.34-10.5Q106.34-13.25 104.94-14.78 103.54-16.3 101.04-16.3L101.04-16.3 101.04-20Q103.84-20 106.09-18.75 108.34-17.5 109.62-15.35 110.89-13.2 110.89-10.5L110.89-10.5ZM100.54-31.3L96.19-31.3 96.19-35.25 100.54-35.25 100.54-31.3ZM110.39-25.9L110.39-25.9 105.84-25.9Q105.84-28.5 104.44-29.9 103.04-31.3 100.54-31.3L100.54-31.3 100.54-35.25Q103.44-35.25 105.67-34.08 107.89-32.9 109.14-30.78 110.39-28.65 110.39-25.9ZM106.34-9.4L110.89-9.4Q110.89-6.6 109.64-4.5 108.39-2.4 106.17-1.2 103.94 0 101.04 0L101.04 0 101.04-3.95Q103.54-3.95 104.94-5.38 106.34-6.8 106.34-9.4L106.34-9.4ZM97.44 0L92.89 0 92.89-35.25 97.44-35.25 97.44 0ZM133.49-8.95L128.94-8.95 128.94-16.3 133.49-16.3 133.49-8.95ZM119.44-8.95L114.89-8.95 114.89-16.3 119.44-16.3 119.44-8.95ZM124.34-22.05L124.04-22.05 124.04-26 124.34-26 124.34-22.05ZM124.34 0.75L124.04 0.75 124.04-3.2 124.34-3.2 124.34 0.75ZM119.44-16.25L114.89-16.25Q114.89-19.05 116.11-21.25 117.34-23.45 119.41-24.73 121.49-26 124.14-26L124.14-26 124.14-22.05Q121.94-22.05 120.69-20.55 119.44-19.05 119.44-16.25L119.44-16.25ZM133.49-16.25L133.49-16.25 128.94-16.25Q128.94-19.05 127.71-20.55 126.49-22.05 124.24-22.05L124.24-22.05 124.24-26Q126.89-26 128.96-24.73 131.04-23.45 132.26-21.25 133.49-19.05 133.49-16.25ZM114.89-9L114.89-9 119.44-9Q119.44-6.25 120.69-4.73 121.94-3.2 124.14-3.2L124.14-3.2 124.14 0.75Q121.49 0.75 119.41-0.53 117.34-1.8 116.11-4 114.89-6.2 114.89-9ZM128.94-9L133.49-9Q133.49-6.2 132.26-4 131.04-1.8 128.96-0.53 126.89 0.75 124.24 0.75L124.24 0.75 124.24-3.2Q126.49-3.2 127.71-4.73 128.94-6.25 128.94-9L128.94-9ZM155.59-8.95L151.04-8.95 151.04-16.3 155.59-16.3 155.59-8.95ZM141.54-8.95L136.99-8.95 136.99-16.3 141.54-16.3 141.54-8.95ZM146.44-22.05L146.14-22.05 146.14-26 146.44-26 146.44-22.05ZM146.44 0.75L146.14 0.75 146.14-3.2 146.44-3.2 146.44 0.75ZM141.54-16.25L136.99-16.25Q136.99-19.05 138.21-21.25 139.44-23.45 141.51-24.73 143.59-26 146.24-26L146.24-26 146.24-22.05Q144.04-22.05 142.79-20.55 141.54-19.05 141.54-16.25L141.54-16.25ZM155.59-16.25L155.59-16.25 151.04-16.25Q151.04-19.05 149.81-20.55 148.59-22.05 146.34-22.05L146.34-22.05 146.34-26Q148.99-26 151.06-24.73 153.14-23.45 154.36-21.25 155.59-19.05 155.59-16.25ZM136.99-9L136.99-9 141.54-9Q141.54-6.25 142.79-4.73 144.04-3.2 146.24-3.2L146.24-3.2 146.24 0.75Q143.59 0.75 141.51-0.53 139.44-1.8 138.21-4 136.99-6.2 136.99-9ZM151.04-9L155.59-9Q155.59-6.2 154.36-4 153.14-1.8 151.06-0.53 148.99 0.75 146.34 0.75L146.34 0.75 146.34-3.2Q148.59-3.2 149.81-4.73 151.04-6.25 151.04-9L151.04-9ZM177.78 0L173.03 0 164.08-13.95 168.43-15.4 177.78 0ZM177.18-25.25L164.23-9 160.73-11.35 171.68-25.25 177.18-25.25ZM164.88 0L160.33 0 160.33-36 164.88-36 164.88 0ZM186.08-8.55L181.53-8.55 181.53-26.7 186.08-26.7 186.08-8.55ZM186.08-26.7L181.53-26.7Q181.53-29.45 182.78-31.58 184.03-33.7 186.28-34.88 188.53-36.05 191.43-36.05L191.43-36.05 191.43-32.1Q188.93-32.1 187.51-30.7 186.08-29.3 186.08-26.7L186.08-26.7ZM181.53-8.6L181.53-8.6 186.08-8.6Q186.08-6 187.51-4.58 188.93-3.15 191.43-3.15L191.43-3.15 191.43 0.8Q188.53 0.8 186.28-0.4 184.03-1.6 182.78-3.7 181.53-5.8 181.53-8.6ZM201.53-26.25L197.38-25.4Q197.08-28.55 195.51-30.33 193.93-32.1 191.38-32.1L191.38-32.1 191.38-36.05Q195.63-36.05 198.31-33.45 200.98-30.85 201.53-26.25L201.53-26.25ZM197.38-9.85L197.38-9.85 201.53-9.05Q200.98-4.4 198.31-1.8 195.63 0.8 191.38 0.8L191.38 0.8 191.38-3.15Q193.93-3.15 195.51-4.93 197.08-6.7 197.38-9.85ZM211.08 0L206.53 0 206.53-36 211.08-36 211.08 0ZM230.88-25.25L235.43-25.25 235.43 0 230.88 0 230.88-25.25ZM216.83-25.25L221.38-25.25 221.38-8.05 216.83-8.05 216.83-25.25ZM216.83-8.05L221.38-8.05Q221.38-5.95 222.7-4.63 224.03-3.3 226.08-3.3L226.08-3.3 224.93 0.75Q222.58 0.75 220.75-0.4 218.93-1.55 217.88-3.55 216.83-5.55 216.83-8.05L216.83-8.05ZM230.88-8.2L232.88-8.2Q232.88-5.65 231.85-3.63 230.83-1.6 229-0.43 227.18 0.75 224.93 0.75L224.93 0.75 226.08-3.3Q228.18-3.3 229.53-4.65 230.88-6 230.88-8.2L230.88-8.2ZM245.97-25.2L241.42-25.2 241.42-35.25 245.97-35.25 245.97-25.2ZM245.97-25.25L245.97 0 241.42 0 241.42-25.25 245.97-25.25ZM260.02-17.2L260.02-8.05 255.47-8.05 255.47-17.2 260.02-17.2ZM260.02-17.2L255.47-17.2Q255.47-19.3 254.17-20.63 252.87-21.95 250.82-21.95L250.82-21.95 251.97-26Q254.27-26 256.1-24.85 257.92-23.7 258.97-21.7 260.02-19.7 260.02-17.2L260.02-17.2ZM245.97-17.1L243.97-17.1Q243.97-19.65 245.02-21.68 246.07-23.7 247.87-24.85 249.67-26 251.97-26L251.97-26 250.82-21.95Q248.67-21.95 247.32-20.6 245.97-19.25 245.97-17.1L245.97-17.1ZM255.47-8.05L255.47-8.05 260.02-8.05Q260.02-5.55 258.97-3.55 257.92-1.55 256.1-0.4 254.27 0.75 251.97 0.75L251.97 0.75 250.82-3.3Q252.87-3.3 254.17-4.63 255.47-5.95 255.47-8.05ZM243.97-8.2L243.97-8.2 245.97-8.2Q245.97-6 247.32-4.65 248.67-3.3 250.82-3.3L250.82-3.3 251.97 0.75Q249.67 0.75 247.87-0.43 246.07-1.6 245.02-3.63 243.97-5.65 243.97-8.2Z" fill="#000000" data-fill-palette-color="primary"></path></g></svg></g></svg></g></svg></g></svg></g><g><svg viewBox="0 0 79.00693417569819 78.39084796263863" height="78.39084796263863" width="79.00693417569819"><g><svg xmlns="http://www.w3.org/2000/svg" data-name="Layer 1" viewBox="0 1 128 127.00187197371494" x="0" y="0" id="icon-0" width="79.00693417569819" height="78.39084796263863" class="icon-icon-0" data-fill-palette-color="accent"><path d="M126 124H119.59A14.6 14.6 0 0 1 116.78 120H16.35A7.8 7.8 0 0 1 14 116H115.3A31 31 0 0 1 114.46 112H13.25C13.13 110.83 13.06 109.5 13.02 108H114.02C114.02 107.35 113.97 106.69 113.97 106S113.97 104.65 114.02 104H13C13 102.5 13.11 101.17 13.23 100H114.43A31 31 0 0 1 115.27 96H14A7.8 7.8 0 0 1 16.38 92H116.77A14.6 14.6 0 0 1 119.58 88H125V24H108V9A8 8 0 0 0 100 1H99.73L31.18 20A4 4 0 0 0 28 21.83C27.75 22.22 26.28 23 24 23S20.21 22.23 20 21.84A4 4 0 0 0 16.51 20H15C7.76 20 0 32.05 0 50V106C0 116.64 3.94 128 15 128H16.51A4 4 0 0 0 20 126.16C20.24 125.77 21.72 125 24 125S27.79 125.77 28 126.16A4 4 0 0 0 31.49 128H126A2 2 0 0 0 126 124M42.25 43.54C42.25 38.38 46.43 33 51.59 31.54A8.4 8.4 0 0 1 56.18 31.43 13.55 13.55 0 0 1 64 24.84C67.31 23.89 70.21 24.79 71.87 26.91A12.4 12.4 0 0 1 76.46 24.39C81.62 22.91 85.8 25.89 85.8 31.05 85.8 35.68 82.43 40.47 78.02 42.48V59L50 67V50.51C45.61 51 42.25 48.17 42.25 43.54M121 28V84H46.18L100.48 68.94C103.71 68.13 107.99 66.43 107.99 61V28Z" fill="#000000" data-fill-palette-color="accent"></path></svg></g></svg></g></svg></g><defs></defs></svg><rect width="395.52" height="61.22369275121193" fill="none" stroke="none" visibility="hidden"></rect></g></svg></g></svg>