<svg xmlns="http://www.w3.org/2000/svg" version="1.1" xmlns:xlink="http://www.w3.org/1999/xlink" xmlns:svgjs="http://svgjs.dev/svgjs" width="1500" height="1500" viewBox="0 0 1500 1500"><rect width="1500" height="1500" fill="#187614"></rect><g transform="matrix(0.6666666666666666,0,0,0.6666666666666666,249.39393939393938,608.993609264752)"><svg viewBox="0 0 396 111" data-background-color="#187614" preserveAspectRatio="xMidYMid meet" height="420" width="1500" xmlns="http://www.w3.org/2000/svg" xmlns:xlink="http://www.w3.org/1999/xlink"><g id="tight-bounds" transform="matrix(1,0,0,1,0.2400000000000091,0.39896204147333947)"><svg viewBox="0 0 395.52 110.20207591705334" height="110.20207591705334" width="395.52"><g><svg viewBox="0 0 585.1553412783257 163.03937434977576" height="110.20207591705334" width="395.52"><g transform="matrix(1,0,0,1,189.63534127832582,58.987988121574475)"><svg viewBox="0 0 395.52 45.0633981066268" height="45.0633981066268" width="395.52"><g id="textblocktransform"><svg viewBox="0 0 395.52 45.0633981066268" height="45.0633981066268" width="395.52" id="textblock"><g><svg viewBox="0 0 395.52 45.0633981066268" height="45.0633981066268" width="395.52"><g transform="matrix(1,0,0,1,0,0)"><svg width="395.52" viewBox="2.35 -33.9 301.02 34.3" height="45.0633981066268" data-palette-color="#f2fb58"><path d="M18.85-32.55L18.85-32.55Q21.25-32.55 23.88-32.35 26.5-32.15 29.2-31.55L29.2-31.55Q29.2-31.55 29.38-30.53 29.55-29.5 29.75-28.13 29.95-26.75 30.13-25.63 30.3-24.5 30.3-24.3L30.3-24.3Q30.35-24.1 30-23.9 29.65-23.7 29.25-23.7L29.25-23.7Q28.9-23.7 28.65-23.85L28.65-23.85Q28.55-24.4 28.18-25.55 27.8-26.7 26.83-27.95 25.85-29.2 24-30.08 22.15-30.95 19.1-30.95L19.1-30.95Q16.4-30.95 14.2-29.73 12-28.5 10.43-26.43 8.85-24.35 8.03-21.83 7.2-19.3 7.2-16.75L7.2-16.75Q7.2-13.9 7.98-11.15 8.75-8.4 10.33-6.18 11.9-3.95 14.28-2.63 16.65-1.3 19.85-1.3L19.85-1.3Q22.1-1.3 23.68-2 25.25-2.7 26.3-3.65L26.3-3.65Q27.75-4.95 28.4-6.55 29.05-8.15 29.3-9.35L29.3-9.35Q30.15-9.45 30.85-8.95L30.85-8.95Q30.85-8.6 30.68-7.55 30.5-6.5 30.25-5.28 30-4.05 29.7-3.1 29.4-2.15 29.15-1.9L29.15-1.9Q27.15-0.8 24.6-0.25 22.05 0.3 18.65 0.3L18.65 0.3Q15.05 0.3 12.05-0.98 9.05-2.25 6.88-4.48 4.7-6.7 3.53-9.58 2.35-12.45 2.35-15.7L2.35-15.7Q2.35-19.15 3.58-22.18 4.8-25.2 7-27.55 9.2-29.9 12.23-31.23 15.25-32.55 18.85-32.55ZM45.3-21.45L45.3-21.45Q48.55-21.45 50.87-20.05 53.2-18.65 54.47-16.25 55.75-13.85 55.75-10.8L55.75-10.8Q55.75-7.65 54.4-5.13 53.05-2.6 50.7-1.13 48.35 0.35 45.4 0.35L45.4 0.35Q42.2 0.35 39.82-1.07 37.45-2.5 36.17-4.93 34.9-7.35 34.9-10.4L34.9-10.4Q34.9-13.55 36.27-16.05 37.65-18.55 40-20 42.35-21.45 45.3-21.45ZM44.75-19.8L44.75-19.8Q42.7-19.8 41.45-18.57 40.2-17.35 39.65-15.43 39.1-13.5 39.1-11.4L39.1-11.4Q39.1-9.05 39.87-6.7 40.65-4.35 42.17-2.8 43.7-1.25 45.9-1.25L45.9-1.25Q48-1.25 49.22-2.48 50.45-3.7 51-5.65 51.55-7.6 51.55-9.65L51.55-9.65Q51.55-12.05 50.75-14.38 49.95-16.7 48.45-18.25 46.95-19.8 44.75-19.8ZM70.15-21.45L70.15-21.45Q73.4-21.45 75.72-20.05 78.05-18.65 79.32-16.25 80.59-13.85 80.59-10.8L80.59-10.8Q80.59-7.65 79.25-5.13 77.9-2.6 75.55-1.13 73.2 0.35 70.25 0.35L70.25 0.35Q67.05 0.35 64.67-1.07 62.3-2.5 61.02-4.93 59.75-7.35 59.75-10.4L59.75-10.4Q59.75-13.55 61.12-16.05 62.5-18.55 64.84-20 67.2-21.45 70.15-21.45ZM69.59-19.8L69.59-19.8Q67.55-19.8 66.3-18.57 65.05-17.35 64.5-15.43 63.95-13.5 63.95-11.4L63.95-11.4Q63.95-9.05 64.72-6.7 65.5-4.35 67.02-2.8 68.55-1.25 70.75-1.25L70.75-1.25Q72.84-1.25 74.07-2.48 75.3-3.7 75.84-5.65 76.4-7.6 76.4-9.65L76.4-9.65Q76.4-12.05 75.59-14.38 74.8-16.7 73.3-18.25 71.8-19.8 69.59-19.8ZM90.69-9.95L90.69-5.65Q90.69-4.55 90.72-3.6 90.74-2.65 90.94-2.05L90.94-2.05Q91.04-1.8 91.67-1.6 92.29-1.4 93.02-1.33 93.74-1.25 94.04-1.25L94.04-1.25Q94.19-1.05 94.22-0.55 94.24-0.05 94.04 0.15L94.04 0.15Q92.54 0.05 91.39-0.03 90.24-0.1 88.79-0.1L88.79-0.1Q87.39-0.1 86.27-0.03 85.14 0.05 83.64 0.15L83.64 0.15Q83.44-0.05 83.47-0.55 83.49-1.05 83.64-1.25L83.64-1.25Q83.94-1.25 84.64-1.33 85.34-1.4 85.99-1.6 86.64-1.8 86.69-2.05L86.69-2.05Q86.89-2.65 86.92-3.6 86.94-4.55 86.94-5.65L86.94-5.65 86.94-27.25Q86.94-27.8 86.92-28.58 86.89-29.35 86.69-29.8L86.69-29.8Q86.49-30.35 85.62-30.5 84.74-30.65 83.74-30.65L83.74-30.65Q83.69-30.65 83.67-31.28 83.64-31.9 83.79-31.95L83.79-31.95Q85.64-32.15 87.39-32.68 89.14-33.2 90.69-33.9L90.69-33.9Q90.89-33.9 91.07-33.63 91.24-33.35 91.24-33.1L91.24-33.1Q91.24-33.1 90.97-32 90.69-30.9 90.69-28.85L90.69-28.85 90.69-11.45Q91.34-11.7 92.42-12.55 93.49-13.4 94.74-14.45L94.74-14.45Q96.64-16.05 97.92-17.1 99.19-18.15 99.19-18.5L99.19-18.5Q99.19-18.9 98.72-19.05 98.24-19.2 97.69-19.28 97.14-19.35 96.89-19.35L96.89-19.35Q96.69-19.6 96.72-20.15 96.74-20.7 96.94-20.75L96.94-20.75Q97.99-20.65 99.24-20.58 100.49-20.5 101.64-20.5L101.64-20.5Q104.19-20.5 105.94-20.75L105.94-20.75Q106.09-20.55 106.07-20.03 106.04-19.5 105.94-19.35L105.94-19.35Q105.44-19.35 104.22-19.05 102.99-18.75 102.19-18.2L102.19-18.2Q101.99-18.05 101.14-17.45 100.29-16.85 99.12-15.95 97.94-15.05 96.67-14.05 95.39-13.05 94.29-12.15L94.29-12.15Q96.14-10.2 97.94-8.18 99.74-6.15 101.14-4.63 102.54-3.1 103.09-2.6L103.09-2.6Q104.04-1.8 105.32-1.5 106.59-1.2 107.54-1.25L107.54-1.25Q107.64-1.15 107.67-0.73 107.69-0.3 107.59-0.1L107.59-0.1Q107.34 0 106.39 0.1 105.44 0.2 104.44 0.2L104.44 0.2Q102.29 0.2 100.64-0.58 98.99-1.35 98.44-1.95L98.44-1.95Q98.44-1.95 97.77-2.68 97.09-3.4 95.99-4.58 94.89-5.75 93.69-7.05 92.49-8.35 91.44-9.5L91.44-9.5Q91.29-9.7 90.99-9.83 90.69-9.95 90.69-9.95L90.69-9.95ZM122.74-32.2L122.74-32.2Q124.39-32.2 126.14-31.83 127.89-31.45 129.34-30.63 130.79-29.8 131.69-28.4 132.59-27 132.59-24.9L132.59-24.9Q132.59-23.05 131.72-21.55 130.84-20.05 129.67-19.1 128.49-18.15 127.64-17.8L127.64-17.8Q127.49-17.7 127.64-17.6L127.64-17.6Q128.54-17.55 129.74-17 130.94-16.45 132.12-15.43 133.29-14.4 134.04-12.95 134.79-11.5 134.79-9.7L134.79-9.7Q134.79-7.6 134.06-5.8 133.34-4 131.54-2.5L131.54-2.5Q129.79-1.05 126.94-0.48 124.09 0.1 121.29 0.15L121.29 0.15 110.04 0.15Q109.84-0.05 109.87-0.55 109.89-1.05 110.04-1.25L110.04-1.25Q110.34-1.25 111.14-1.33 111.94-1.4 112.67-1.6 113.39-1.8 113.44-2.05L113.44-2.05Q113.64-2.65 113.67-3.6 113.69-4.55 113.69-5.65L113.69-5.65 113.69-26.5Q113.69-27.6 113.67-28.58 113.64-29.55 113.44-30.15L113.44-30.15Q113.39-30.45 112.67-30.6 111.94-30.75 111.14-30.83 110.34-30.9 110.04-30.9L110.04-30.9Q109.89-31.1 109.87-31.6 109.84-32.1 110.04-32.3L110.04-32.3Q111.54-32.25 112.99-32.18 114.44-32.1 115.84-32.1L115.84-32.1Q117.29-32.1 118.94-32.15 120.59-32.2 122.74-32.2ZM120.89-16.2L117.94-16.2 117.94-5.6Q117.94-5.25 117.97-4.53 117.99-3.8 118.09-3.15 118.19-2.5 118.34-2.3L118.34-2.3Q118.89-1.7 119.87-1.55 120.84-1.4 122.19-1.4L122.19-1.4Q124.04-1.4 125.81-1.95 127.59-2.5 128.79-4.08 129.99-5.65 129.99-8.6L129.99-8.6Q129.99-10.45 129.29-12.18 128.59-13.9 126.62-15.05 124.64-16.2 120.89-16.2L120.89-16.2ZM117.94-26.45L117.94-18.05 121.99-18.05Q124.19-18.05 125.54-18.9 126.89-19.75 127.52-21.08 128.14-22.4 128.14-23.8L128.14-23.8Q128.14-27.05 126.06-28.83 123.99-30.6 120.59-30.6L120.59-30.6Q120.14-30.6 119.22-30.55 118.29-30.5 118.14-30.15L118.14-30.15Q117.99-29.75 117.97-28.9 117.94-28.05 117.94-27.1L117.94-27.1Q117.94-26.9 117.94-26.75 117.94-26.6 117.94-26.45L117.94-26.45ZM149.34-21.45L149.34-21.45Q152.59-21.45 154.91-20.05 157.24-18.65 158.51-16.25 159.79-13.85 159.79-10.8L159.79-10.8Q159.79-7.65 158.44-5.13 157.09-2.6 154.74-1.13 152.39 0.35 149.44 0.35L149.44 0.35Q146.24 0.35 143.86-1.07 141.49-2.5 140.21-4.93 138.94-7.35 138.94-10.4L138.94-10.4Q138.94-13.55 140.31-16.05 141.69-18.55 144.04-20 146.39-21.45 149.34-21.45ZM148.79-19.8L148.79-19.8Q146.74-19.8 145.49-18.57 144.24-17.35 143.69-15.43 143.14-13.5 143.14-11.4L143.14-11.4Q143.14-9.05 143.91-6.7 144.69-4.35 146.21-2.8 147.74-1.25 149.94-1.25L149.94-1.25Q152.04-1.25 153.26-2.48 154.49-3.7 155.04-5.65 155.59-7.6 155.59-9.65L155.59-9.65Q155.59-12.05 154.79-14.38 153.99-16.7 152.49-18.25 150.99-19.8 148.79-19.8ZM174.19-21.45L174.19-21.45Q177.44-21.45 179.76-20.05 182.09-18.65 183.36-16.25 184.63-13.85 184.63-10.8L184.63-10.8Q184.63-7.65 183.28-5.13 181.94-2.6 179.59-1.13 177.23 0.35 174.28 0.35L174.28 0.35Q171.09 0.35 168.71-1.07 166.34-2.5 165.06-4.93 163.78-7.35 163.78-10.4L163.78-10.4Q163.78-13.55 165.16-16.05 166.53-18.55 168.88-20 171.23-21.45 174.19-21.45ZM173.63-19.8L173.63-19.8Q171.59-19.8 170.34-18.57 169.09-17.35 168.53-15.43 167.98-13.5 167.98-11.4L167.98-11.4Q167.98-9.05 168.76-6.7 169.53-4.35 171.06-2.8 172.59-1.25 174.78-1.25L174.78-1.25Q176.88-1.25 178.11-2.48 179.34-3.7 179.88-5.65 180.44-7.6 180.44-9.65L180.44-9.65Q180.44-12.05 179.63-14.38 178.84-16.7 177.34-18.25 175.84-19.8 173.63-19.8ZM194.73-9.95L194.73-5.65Q194.73-4.55 194.76-3.6 194.78-2.65 194.98-2.05L194.98-2.05Q195.08-1.8 195.71-1.6 196.33-1.4 197.06-1.33 197.78-1.25 198.08-1.25L198.08-1.25Q198.23-1.05 198.26-0.55 198.28-0.05 198.08 0.15L198.08 0.15Q196.58 0.05 195.43-0.03 194.28-0.1 192.83-0.1L192.83-0.1Q191.43-0.1 190.31-0.03 189.18 0.05 187.68 0.15L187.68 0.15Q187.48-0.05 187.51-0.55 187.53-1.05 187.68-1.25L187.68-1.25Q187.98-1.25 188.68-1.33 189.38-1.4 190.03-1.6 190.68-1.8 190.73-2.05L190.73-2.05Q190.93-2.65 190.96-3.6 190.98-4.55 190.98-5.65L190.98-5.65 190.98-27.25Q190.98-27.8 190.96-28.58 190.93-29.35 190.73-29.8L190.73-29.8Q190.53-30.35 189.66-30.5 188.78-30.65 187.78-30.65L187.78-30.65Q187.73-30.65 187.71-31.28 187.68-31.9 187.83-31.95L187.83-31.95Q189.68-32.15 191.43-32.68 193.18-33.2 194.73-33.9L194.73-33.9Q194.93-33.9 195.11-33.63 195.28-33.35 195.28-33.1L195.28-33.1Q195.28-33.1 195.01-32 194.73-30.9 194.73-28.85L194.73-28.85 194.73-11.45Q195.38-11.7 196.46-12.55 197.53-13.4 198.78-14.45L198.78-14.45Q200.68-16.05 201.96-17.1 203.23-18.15 203.23-18.5L203.23-18.5Q203.23-18.9 202.76-19.05 202.28-19.2 201.73-19.28 201.18-19.35 200.93-19.35L200.93-19.35Q200.73-19.6 200.76-20.15 200.78-20.7 200.98-20.75L200.98-20.75Q202.03-20.65 203.28-20.58 204.53-20.5 205.68-20.5L205.68-20.5Q208.23-20.5 209.98-20.75L209.98-20.75Q210.13-20.55 210.11-20.03 210.08-19.5 209.98-19.35L209.98-19.35Q209.48-19.35 208.26-19.05 207.03-18.75 206.23-18.2L206.23-18.2Q206.03-18.05 205.18-17.45 204.33-16.85 203.16-15.95 201.98-15.05 200.71-14.05 199.43-13.05 198.33-12.15L198.33-12.15Q200.18-10.2 201.98-8.18 203.78-6.15 205.18-4.63 206.58-3.1 207.13-2.6L207.13-2.6Q208.08-1.8 209.36-1.5 210.63-1.2 211.58-1.25L211.58-1.25Q211.68-1.15 211.71-0.73 211.73-0.3 211.63-0.1L211.63-0.1Q211.38 0 210.43 0.1 209.48 0.2 208.48 0.2L208.48 0.2Q206.33 0.2 204.68-0.58 203.03-1.35 202.48-1.95L202.48-1.95Q202.48-1.95 201.81-2.68 201.13-3.4 200.03-4.58 198.93-5.75 197.73-7.05 196.53-8.35 195.48-9.5L195.48-9.5Q195.33-9.7 195.03-9.83 194.73-9.95 194.73-9.95L194.73-9.95ZM229.38-32.55L229.38-32.55Q231.78-32.55 234.41-32.35 237.03-32.15 239.73-31.55L239.73-31.55Q239.73-31.55 239.91-30.53 240.08-29.5 240.28-28.13 240.48-26.75 240.66-25.63 240.83-24.5 240.83-24.3L240.83-24.3Q240.88-24.1 240.53-23.9 240.18-23.7 239.78-23.7L239.78-23.7Q239.43-23.7 239.18-23.85L239.18-23.85Q239.08-24.4 238.71-25.55 238.33-26.7 237.36-27.95 236.38-29.2 234.53-30.08 232.68-30.95 229.63-30.95L229.63-30.95Q226.93-30.95 224.73-29.73 222.53-28.5 220.96-26.43 219.38-24.35 218.56-21.83 217.73-19.3 217.73-16.75L217.73-16.75Q217.73-13.9 218.5-11.15 219.28-8.4 220.85-6.18 222.43-3.95 224.81-2.63 227.18-1.3 230.38-1.3L230.38-1.3Q232.63-1.3 234.21-2 235.78-2.7 236.83-3.65L236.83-3.65Q238.28-4.95 238.93-6.55 239.58-8.15 239.83-9.35L239.83-9.35Q240.68-9.45 241.38-8.95L241.38-8.95Q241.38-8.6 241.21-7.55 241.03-6.5 240.78-5.28 240.53-4.05 240.23-3.1 239.93-2.15 239.68-1.9L239.68-1.9Q237.68-0.8 235.13-0.25 232.58 0.3 229.18 0.3L229.18 0.3Q225.58 0.3 222.58-0.98 219.58-2.25 217.41-4.48 215.23-6.7 214.06-9.58 212.88-12.45 212.88-15.7L212.88-15.7Q212.88-19.15 214.1-22.18 215.33-25.2 217.53-27.55 219.73-29.9 222.75-31.23 225.78-32.55 229.38-32.55ZM247.78-5.65L247.78-27.25Q247.78-27.8 247.75-28.58 247.73-29.35 247.53-29.8L247.53-29.8Q247.33-30.35 246.45-30.5 245.58-30.65 244.58-30.65L244.58-30.65Q244.53-30.65 244.5-31.28 244.48-31.9 244.63-31.95L244.63-31.95Q246.48-32.15 248.23-32.68 249.98-33.2 251.53-33.9L251.53-33.9Q251.73-33.9 251.9-33.63 252.08-33.35 252.08-33.1L252.08-33.1Q252.08-33.1 251.8-32 251.53-30.9 251.53-28.85L251.53-28.85 251.53-5.65Q251.53-4.55 251.55-3.6 251.58-2.65 251.78-2.05L251.78-2.05Q251.88-1.8 252.5-1.6 253.13-1.4 253.85-1.33 254.58-1.25 254.88-1.25L254.88-1.25Q255.03-1.05 255.05-0.55 255.08-0.05 254.88 0.15L254.88 0.15Q253.38 0.05 252.23-0.03 251.08-0.1 249.63-0.1L249.63-0.1Q248.23-0.1 247.1-0.03 245.98 0.05 244.48 0.15L244.48 0.15Q244.28-0.05 244.3-0.55 244.33-1.05 244.48-1.25L244.48-1.25Q244.78-1.25 245.48-1.33 246.18-1.4 246.83-1.6 247.48-1.8 247.53-2.05L247.53-2.05Q247.73-2.65 247.75-3.6 247.78-4.55 247.78-5.65L247.78-5.65ZM272.93-5.1L272.93-15.6Q272.93-15.65 272.93-15.8L272.93-15.8Q272.93-16.3 272.88-17.03 272.82-17.75 272.57-18.25L272.57-18.25Q272.23-18.95 271.27-19.1 270.32-19.25 269.82-19.25L269.82-19.25Q269.73-19.35 269.7-19.83 269.68-20.3 269.82-20.5L269.82-20.5Q271.73-20.6 273.48-20.85 275.23-21.1 276.52-21.5L276.52-21.5Q276.73-21.5 276.88-21 277.02-20.5 277.02-20.3L277.02-20.3Q276.88-20 276.8-19.1 276.73-18.2 276.73-17.15L276.73-17.15 276.73-6.9Q276.73-6.5 276.77-5.33 276.82-4.15 277.02-3.15L277.02-3.15Q277.18-2.55 278.15-2.45 279.13-2.35 279.63-2.3L279.63-2.3Q279.88-2.3 279.93-2.3L279.93-2.3Q280.02-2.25 280.05-2.05 280.07-1.85 280.07-1.75L280.07-1.75Q280.07-1.7 279.98-1.35 279.88-1 279.68-1L279.68-1Q278.43-0.95 276.95-0.6 275.48-0.25 274.43 0.08 273.38 0.4 273.32 0.4L273.32 0.4Q273.13 0.4 273.02 0.13 272.93-0.15 272.93-0.4L272.93-0.4 272.93-2.65Q272.93-2.85 272.88-2.88 272.82-2.9 272.82-2.9L272.82-2.9Q272.18-2.2 271.02-1.43 269.88-0.65 268.52-0.15 267.18 0.35 265.93 0.35L265.93 0.35Q263.98 0.35 262.77-0.58 261.57-1.5 260.93-2.98 260.27-4.45 260.05-6.15 259.82-7.85 259.82-9.4L259.82-9.4 259.82-15.6Q259.82-16.1 259.77-16.9 259.73-17.7 259.43-18.25L259.43-18.25Q259.07-18.95 258.13-19.1 257.18-19.25 256.68-19.25L256.68-19.25Q256.57-19.35 256.55-19.83 256.52-20.3 256.68-20.5L256.68-20.5Q258.57-20.6 260.32-20.85 262.07-21.1 263.38-21.5L263.38-21.5Q263.57-21.5 263.75-21.1 263.93-20.7 263.93-20.5L263.93-20.5Q263.77-20.2 263.68-19.2 263.57-18.2 263.57-17.15L263.57-17.15 263.57-9.95Q263.57-6.05 264.75-4.23 265.93-2.4 268.48-2.4L268.48-2.4Q269.57-2.4 270.57-2.83 271.57-3.25 272.25-3.9 272.93-4.55 272.93-5.1L272.93-5.1ZM291.27 0.35L291.27 0.35Q290.72 0.35 289.6 0.08 288.47-0.2 287.67-0.4L287.67-0.4Q287.52-0.45 287.27-0.5L287.27-0.5Q286.62-0.7 285.92-0.83 285.22-0.95 284.52-0.7L284.52-0.7Q284.32-0.7 284.1-1.13 283.87-1.55 283.87-1.75L283.87-1.75Q284.22-2.5 284.35-3.55 284.47-4.6 284.47-5.35L284.47-5.35 284.47-27.25Q284.47-27.75 284.45-28.55 284.42-29.35 284.22-29.8L284.22-29.8Q284.02-30.35 283.12-30.5 282.22-30.65 281.22-30.65L281.22-30.65Q281.17-30.65 281.15-31.28 281.12-31.9 281.27-31.95L281.27-31.95Q283.12-32.15 284.9-32.68 286.67-33.2 288.22-33.9L288.22-33.9Q288.42-33.9 288.6-33.63 288.77-33.35 288.77-33.1L288.77-33.1Q288.77-33.1 288.5-32 288.22-30.9 288.22-28.85L288.22-28.85 288.22-19.25Q288.22-19.05 288.27-18.8 288.32-18.55 288.52-18.75L288.52-18.75Q288.92-19.05 289.97-19.68 291.02-20.3 292.27-20.85 293.52-21.4 294.42-21.4L294.42-21.4Q296.62-21.4 298.3-20.48 299.97-19.55 301.1-18.07 302.22-16.6 302.8-14.83 303.37-13.05 303.37-11.4L303.37-11.4Q303.37-8.2 301.8-5.53 300.22-2.85 297.5-1.25 294.77 0.35 291.27 0.35ZM292.07-18.5L292.07-18.5Q291.12-18.5 289.97-18.03 288.82-17.55 288.47-17.2L288.47-17.2Q288.22-16.95 288.22-16.65L288.22-16.65 288.22-4.8Q288.22-3.75 288.92-2.95 289.62-2.15 290.67-1.73 291.72-1.3 292.77-1.3L292.77-1.3Q294.52-1.3 296-2.53 297.47-3.75 298.37-5.63 299.27-7.5 299.27-9.45L299.27-9.45Q299.27-13.7 297.3-16.1 295.32-18.5 292.07-18.5Z" opacity="1" transform="matrix(1,0,0,1,0,0)" fill="#f2fb58" class="wordmark-text-0" data-fill-palette-color="primary" id="text-0"></path></svg></g></svg></g></svg></g></svg></g><g><svg viewBox="0 0 163.03937434977576 163.03937434977576" height="163.03937434977576" width="163.03937434977576"><g><svg viewBox="0 0 163.03937434977576 163.03937434977576" height="163.03937434977576" width="163.03937434977576"><g transform="matrix(1,0,0,1,51.46789984635102,43.09093810717505)"><svg viewBox="0 0 60.10357465707372 76.85749813542566" height="76.85749813542566" width="60.10357465707372"><g><svg xmlns="http://www.w3.org/2000/svg" xmlns:xlink="http://www.w3.org/1999/xlink" version="1.1" x="0" y="0" viewBox="14.631 4.713 70.737 90.45500000000001" enable-background="new 0 0 100 100" xml:space="preserve" height="76.85749813542566" width="60.10357465707372" class="icon-dxe-0" data-fill-palette-color="accent" id="dxe-0"><g fill="#f6efd1" data-fill-palette-color="accent"><path d="M73.616 29.424A8.045 8.045 0 0 0 65.575 21.381C63.568 21.381 61.757 22.14 60.346 23.355 58.94 22.141 57.128 21.381 55.127 21.381 53.098 21.381 51.267 22.157 49.854 23.395 48.438 22.157 46.608 21.381 44.581 21.381A8.043 8.043 0 0 0 41.452 36.834V49.391H68.7V36.831A8.04 8.04 0 0 0 73.616 29.424" fill="#f6efd1" data-fill-palette-color="accent"></path><rect x="41.452" y="53.405" width="27.248" height="4.021" fill="#f6efd1" data-fill-palette-color="accent"></rect></g><path d="M23.102 4.713C18.431 4.713 14.631 8.511 14.631 13.18V75.537C14.631 80.209 18.436 84.009 23.11 84.009H46.353V95.168L54.845 90.13 63.327 95.168V84.012L81.044 84.015V71.775H85.368V4.718zM76.338 79.302L63.328 79.301V75.915H46.354V79.301H23.11C21.032 79.301 19.339 77.613 19.339 75.537S21.031 71.772 23.11 71.772H76.338zM80.66 67.067H29.441V9.427H80.66z" fill="#f6efd1" data-fill-palette-color="accent"></path></svg></g></svg></g><g id="text-0"><path d="M1.885 51.915v0c0.214-0.614 0.465-1.252 0.752-1.912 0.285-0.654 0.626-1.303 1.022-1.947v0c0 0 0.139 0.023 0.417 0.07 0.278 0.047 0.605 0.107 0.982 0.181 0.37 0.071 0.706 0.135 1.01 0.19 0.304 0.056 0.481 0.092 0.532 0.11v0c0.056 0.005 0.093 0.061 0.113 0.169 0.02 0.107 0.012 0.212-0.023 0.314v0c-0.031 0.09-0.077 0.16-0.138 0.211v0c-0.15-0.023-0.39-0.035-0.72-0.036-0.328-0.007-0.695 0.059-1.102 0.198-0.413 0.136-0.814 0.402-1.203 0.797-0.391 0.402-0.723 0.993-0.995 1.773v0c-0.243 0.697-0.306 1.382-0.188 2.055 0.115 0.679 0.371 1.313 0.769 1.904 0.391 0.588 0.876 1.101 1.454 1.54 0.571 0.443 1.185 0.779 1.845 1.008v0c0.729 0.254 1.485 0.402 2.266 0.445 0.773 0.047 1.518-0.031 2.234-0.234 0.71-0.205 1.341-0.555 1.895-1.051 0.557-0.488 0.98-1.144 1.267-1.969v0c0.201-0.576 0.283-1.1 0.246-1.572-0.045-0.468-0.143-0.878-0.292-1.232v0c-0.203-0.487-0.48-0.888-0.829-1.204-0.358-0.311-0.679-0.552-0.965-0.723v0c0.05-0.226 0.17-0.407 0.361-0.542v0c0.09 0.031 0.264 0.117 0.524 0.258 0.253 0.138 0.525 0.294 0.817 0.468 0.291 0.173 0.545 0.341 0.761 0.502 0.223 0.164 0.355 0.289 0.397 0.375v0c0.101 0.616 0.108 1.275 0.022 1.977-0.089 0.708-0.285 1.497-0.588 2.367v0c-0.323 0.928-0.783 1.722-1.379 2.383-0.594 0.654-1.277 1.163-2.049 1.525-0.763 0.358-1.569 0.559-2.415 0.601-0.843 0.051-1.683-0.07-2.522-0.362v0c-0.889-0.31-1.666-0.76-2.328-1.349-0.671-0.585-1.21-1.264-1.616-2.037-0.41-0.781-0.649-1.618-0.718-2.511-0.067-0.899 0.061-1.812 0.384-2.74z" fill="#f6efd1" data-fill-palette-color="accent"></path><path d="M14.583 36.823v0c0.486-0.743 1.061-1.273 1.724-1.592 0.666-0.325 1.369-0.452 2.108-0.381 0.734 0.067 1.449 0.329 2.146 0.786v0c0.72 0.472 1.266 1.048 1.638 1.729 0.372 0.681 0.552 1.402 0.539 2.164-0.015 0.752-0.243 1.465-0.685 2.139v0c-0.475 0.726-1.053 1.255-1.732 1.587-0.676 0.327-1.386 0.453-2.131 0.378-0.743-0.065-1.463-0.326-2.16-0.783v0c-0.72-0.472-1.259-1.052-1.618-1.74-0.368-0.687-0.542-1.404-0.522-2.153 0.024-0.754 0.255-1.465 0.693-2.134zM15.022 37.378v0c-0.304 0.465-0.411 0.93-0.319 1.395 0.094 0.475 0.318 0.917 0.674 1.328 0.355 0.411 0.773 0.774 1.254 1.089v0c0.533 0.349 1.126 0.612 1.78 0.789 0.652 0.168 1.266 0.194 1.844 0.079 0.584-0.112 1.041-0.42 1.371-0.925v0c0.312-0.476 0.42-0.944 0.324-1.404-0.101-0.463-0.331-0.905-0.687-1.325-0.36-0.414-0.776-0.776-1.246-1.083v0c-0.544-0.356-1.144-0.616-1.799-0.778-0.646-0.164-1.259-0.193-1.839-0.087-0.574 0.11-1.027 0.417-1.357 0.922z" fill="#f6efd1" data-fill-palette-color="accent"></path><path d="M26.113 23.165v0c0.638-0.617 1.316-1.008 2.033-1.173 0.722-0.17 1.435-0.139 2.14 0.093 0.701 0.228 1.34 0.641 1.92 1.24v0c0.598 0.619 1.003 1.301 1.216 2.048 0.213 0.746 0.229 1.489 0.049 2.229-0.18 0.73-0.56 1.375-1.14 1.936v0c-0.624 0.603-1.303 0.991-2.04 1.166-0.731 0.17-1.452 0.136-2.161-0.102-0.71-0.228-1.355-0.641-1.935-1.24v0c-0.598-0.619-0.996-1.304-1.194-2.054-0.208-0.751-0.219-1.489-0.034-2.215 0.19-0.73 0.572-1.373 1.146-1.928zM26.419 23.802v0c-0.399 0.386-0.606 0.816-0.619 1.291-0.013 0.484 0.108 0.965 0.364 1.444 0.255 0.479 0.583 0.925 0.984 1.339v0c0.443 0.458 0.963 0.845 1.561 1.162 0.599 0.307 1.192 0.468 1.782 0.483 0.594 0.02 1.108-0.18 1.541-0.599v0c0.409-0.396 0.618-0.828 0.626-1.298 0.003-0.474-0.123-0.956-0.378-1.444-0.26-0.484-0.586-0.928-0.977-1.332v0c-0.452-0.468-0.98-0.853-1.583-1.155-0.594-0.302-1.185-0.466-1.774-0.49-0.584-0.019-1.093 0.18-1.527 0.599z" fill="#f6efd1" data-fill-palette-color="accent"></path><path d="M41.331 17.335l0.9 1.51c0.153 0.256 0.298 0.493 0.435 0.711 0.138 0.218 0.273 0.386 0.406 0.504v0c0.058 0.044 0.174 0.046 0.347 0.006 0.173-0.04 0.35-0.102 0.529-0.185 0.179-0.083 0.304-0.145 0.373-0.187v0c0.063 0.026 0.132 0.095 0.207 0.209 0.075 0.113 0.103 0.207 0.085 0.281v0c-0.363 0.185-0.684 0.348-0.962 0.49-0.284 0.145-0.595 0.319-0.933 0.519v0c-0.326 0.194-0.615 0.378-0.866 0.552-0.257 0.177-0.554 0.381-0.89 0.612v0c-0.074-0.019-0.143-0.088-0.207-0.208-0.064-0.12-0.092-0.214-0.084-0.281v0c0.07-0.042 0.181-0.12 0.334-0.234 0.158-0.118 0.299-0.245 0.423-0.382 0.124-0.137 0.174-0.238 0.151-0.303v0c-0.04-0.173-0.123-0.372-0.249-0.597-0.126-0.225-0.265-0.465-0.418-0.721v0l-4.513-7.581c-0.076-0.128-0.173-0.284-0.29-0.466-0.113-0.177-0.224-0.304-0.333-0.381v0c-0.123-0.1-0.297-0.107-0.521-0.021-0.23 0.09-0.462 0.204-0.695 0.343v0c-0.012 0.007-0.064-0.061-0.156-0.203-0.092-0.142-0.125-0.229-0.097-0.262v0c0.409-0.307 0.781-0.642 1.116-1.007 0.335-0.365 0.635-0.741 0.901-1.128v0c0.047-0.028 0.109-0.022 0.188 0.018 0.082 0.046 0.141 0.098 0.176 0.155v0c0 0 0.044 0.147 0.133 0.442 0.088 0.294 0.275 0.68 0.559 1.157v0l3.639 6.114c0.117-0.148 0.241-0.396 0.374-0.743 0.129-0.353 0.266-0.738 0.412-1.156v0c0.226-0.64 0.415-1.17 0.567-1.592 0.148-0.427 0.198-0.681 0.149-0.763v0c-0.055-0.093-0.149-0.124-0.281-0.093-0.131 0.031-0.266 0.076-0.404 0.135-0.138 0.059-0.237 0.106-0.296 0.14v0c-0.081-0.03-0.157-0.112-0.227-0.243-0.07-0.132-0.086-0.217-0.046-0.257v0c0.258-0.122 0.538-0.261 0.84-0.417 0.301-0.156 0.589-0.315 0.862-0.478v0c0.594-0.354 1.08-0.683 1.459-0.987v0c0.063 0.026 0.127 0.102 0.195 0.227 0.067 0.126 0.099 0.213 0.096 0.262v0c-0.122 0.073-0.305 0.229-0.549 0.469-0.244 0.24-0.421 0.479-0.53 0.718v0c-0.026 0.063-0.094 0.226-0.206 0.489-0.121 0.261-0.255 0.578-0.404 0.95-0.149 0.373-0.302 0.764-0.461 1.174-0.164 0.413-0.31 0.804-0.438 1.171v0c0.707 0.194 1.411 0.402 2.111 0.625 0.703 0.228 1.327 0.421 1.87 0.578 0.537 0.161 0.905 0.262 1.102 0.302v0c0.336 0.06 0.673 0.037 1.012-0.07 0.344-0.11 0.624-0.237 0.838-0.381v0c0.037 0.009 0.088 0.062 0.152 0.157 0.065 0.096 0.099 0.173 0.104 0.234v0c-0.044 0.058-0.17 0.164-0.377 0.32-0.213 0.158-0.436 0.307-0.669 0.446v0c-0.501 0.298-0.997 0.471-1.489 0.519-0.498 0.052-0.852 0.046-1.063-0.017v0c0 0-0.131-0.041-0.392-0.122-0.258-0.075-0.596-0.173-1.015-0.295-0.425-0.118-0.867-0.245-1.327-0.381-0.463-0.142-0.897-0.274-1.301-0.396v0c-0.063-0.026-0.138-0.032-0.225-0.02-0.087 0.012-0.131 0.019-0.131 0.019z" fill="#f6efd1" data-fill-palette-color="accent"></path><path d="M56.52 0.507v0c0.426-0.137 0.883-0.23 1.373-0.28 0.483-0.048 0.945-0.026 1.388 0.067 0.443 0.093 0.841 0.281 1.195 0.566 0.35 0.293 0.612 0.711 0.787 1.252v0c0.155 0.484 0.182 0.956 0.081 1.416-0.108 0.462-0.274 0.864-0.499 1.206-0.225 0.343-0.431 0.597-0.619 0.765v0c-0.03 0.038-0.022 0.064 0.025 0.077v0c0.236-0.062 0.532-0.071 0.887-0.029 0.355 0.043 0.73 0.146 1.125 0.312 0.388 0.167 0.739 0.407 1.053 0.718 0.316 0.319 0.548 0.71 0.697 1.175v0c0.176 0.548 0.245 1.085 0.207 1.609-0.038 0.525-0.226 1.058-0.564 1.601v0c-0.338 0.521-0.851 0.974-1.539 1.359-0.694 0.387-1.401 0.702-2.119 0.947v0l-4.384 1.408c-0.068-0.035-0.12-0.118-0.154-0.25-0.035-0.131-0.041-0.229-0.02-0.292v0c0.077-0.025 0.219-0.081 0.427-0.169 0.2-0.086 0.386-0.184 0.556-0.296 0.171-0.112 0.252-0.202 0.244-0.271v0c0-0.178-0.036-0.39-0.109-0.637-0.072-0.247-0.154-0.513-0.245-0.797v0l-2.604-8.109c-0.091-0.284-0.181-0.554-0.27-0.81-0.087-0.25-0.182-0.443-0.283-0.582v0c-0.038-0.073-0.156-0.099-0.356-0.078-0.2 0.021-0.406 0.056-0.618 0.103-0.219 0.049-0.367 0.086-0.445 0.11v0c-0.055-0.039-0.107-0.122-0.155-0.249-0.048-0.127-0.054-0.225-0.019-0.292v0c0.398-0.113 0.787-0.221 1.167-0.322 0.38-0.101 0.754-0.21 1.122-0.328v0c0.374-0.12 0.772-0.255 1.194-0.405 0.422-0.15 0.913-0.315 1.474-0.495zM57.802 6.96l-1.152 0.37 1.324 4.122c0.029 0.09 0.077 0.228 0.143 0.413 0.067 0.185 0.14 0.357 0.22 0.517 0.082 0.166 0.15 0.268 0.205 0.308v0c0.192 0.109 0.419 0.143 0.684 0.1 0.27-0.044 0.58-0.122 0.928-0.234v0c0.477-0.153 0.922-0.374 1.335-0.663 0.419-0.291 0.717-0.693 0.894-1.205 0.179-0.506 0.146-1.143-0.101-1.911v0c-0.153-0.477-0.392-0.91-0.715-1.297-0.326-0.394-0.791-0.657-1.396-0.79-0.611-0.131-1.401-0.041-2.369 0.27zM55.37 3.343l1.047 3.261 1.578-0.507c0.568-0.182 0.991-0.439 1.268-0.77 0.284-0.333 0.452-0.697 0.504-1.09 0.051-0.394 0.018-0.774-0.1-1.143v0c-0.269-0.839-0.746-1.404-1.43-1.696-0.689-0.284-1.475-0.284-2.36-0.001v0c-0.116 0.037-0.291 0.101-0.526 0.19-0.235 0.09-0.357 0.186-0.366 0.289v0c-0.006 0.116 0.024 0.284 0.087 0.505 0.066 0.228 0.138 0.464 0.218 0.71v0c0.017 0.052 0.031 0.097 0.043 0.135 0.012 0.039 0.025 0.077 0.037 0.117z" fill="#f6efd1" data-fill-palette-color="accent"></path><path d="M76.168 1.264v0c0.885-0.068 1.656 0.064 2.314 0.394 0.664 0.33 1.193 0.809 1.588 1.438 0.394 0.622 0.623 1.349 0.686 2.18v0c0.066 0.858-0.058 1.642-0.37 2.352-0.313 0.71-0.774 1.293-1.385 1.748-0.605 0.447-1.309 0.702-2.113 0.763v0c-0.865 0.066-1.636-0.068-2.314-0.404-0.671-0.336-1.205-0.822-1.6-1.458-0.401-0.628-0.634-1.358-0.698-2.189v0c-0.066-0.858 0.065-1.639 0.392-2.344 0.319-0.711 0.782-1.286 1.386-1.727 0.612-0.441 1.316-0.692 2.114-0.753zM75.996 1.95v0c-0.554 0.042-0.987 0.242-1.299 0.599-0.319 0.364-0.532 0.812-0.642 1.344-0.109 0.532-0.141 1.085-0.097 1.659v0c0.049 0.635 0.202 1.266 0.461 1.891 0.265 0.619 0.619 1.121 1.063 1.509 0.445 0.394 0.968 0.568 1.569 0.522v0c0.568-0.043 1.004-0.243 1.31-0.6 0.305-0.363 0.515-0.814 0.631-1.353 0.108-0.538 0.141-1.088 0.098-1.649v0c-0.05-0.649-0.21-1.282-0.482-1.9-0.264-0.612-0.615-1.115-1.054-1.509-0.437-0.388-0.957-0.559-1.558-0.513z" fill="#f6efd1" data-fill-palette-color="accent"></path><path d="M94.024 2.062v0c0.878 0.129 1.602 0.427 2.17 0.894 0.575 0.468 0.986 1.052 1.232 1.752 0.247 0.694 0.311 1.453 0.19 2.278v0c-0.125 0.851-0.418 1.589-0.88 2.213-0.461 0.624-1.04 1.09-1.736 1.399-0.688 0.303-1.431 0.396-2.229 0.279v0c-0.858-0.126-1.581-0.427-2.169-0.904-0.581-0.476-0.994-1.067-1.239-1.774-0.253-0.701-0.319-1.464-0.198-2.289v0c0.125-0.851 0.424-1.585 0.898-2.2 0.468-0.623 1.046-1.083 1.733-1.379 0.694-0.295 1.436-0.385 2.228-0.269zM93.705 2.693v0c-0.55-0.081-1.016 0.019-1.4 0.298-0.391 0.285-0.698 0.675-0.921 1.169-0.223 0.495-0.377 1.027-0.461 1.597v0c-0.092 0.63-0.082 1.279 0.033 1.946 0.122 0.662 0.357 1.23 0.705 1.707 0.347 0.482 0.819 0.767 1.416 0.854v0c0.563 0.083 1.033-0.016 1.409-0.296 0.378-0.287 0.682-0.681 0.913-1.181 0.224-0.501 0.377-1.03 0.459-1.586v0c0.094-0.644 0.077-1.297-0.051-1.96-0.123-0.655-0.355-1.223-0.695-1.704-0.341-0.475-0.81-0.756-1.407-0.844z" fill="#f6efd1" data-fill-palette-color="accent"></path><path d="M107.931 10.557l-0.648 1.635c-0.11 0.277-0.209 0.537-0.298 0.778-0.089 0.242-0.139 0.452-0.151 0.629v0c0 0.073 0.069 0.166 0.207 0.279 0.138 0.113 0.294 0.215 0.469 0.306 0.175 0.091 0.301 0.152 0.376 0.182v0c0.018 0.065 0.005 0.162-0.039 0.291-0.044 0.128-0.101 0.208-0.171 0.238v0c-0.368-0.175-0.693-0.329-0.975-0.463-0.289-0.136-0.616-0.277-0.981-0.422v0c-0.353-0.14-0.675-0.256-0.965-0.35-0.297-0.096-0.64-0.206-1.028-0.33v0c-0.03-0.07-0.018-0.167 0.039-0.291 0.056-0.123 0.113-0.203 0.171-0.239v0c0.076 0.03 0.205 0.07 0.389 0.122 0.19 0.053 0.377 0.088 0.561 0.102 0.184 0.015 0.294-0.007 0.332-0.065v0c0.113-0.138 0.22-0.325 0.321-0.562 0.101-0.237 0.207-0.494 0.316-0.771v0l3.251-8.201c0.055-0.139 0.119-0.31 0.193-0.514 0.071-0.198 0.104-0.363 0.098-0.497v0c0.005-0.159-0.096-0.3-0.301-0.426-0.212-0.128-0.444-0.241-0.696-0.341v0c-0.013-0.005 0.009-0.087 0.065-0.247 0.056-0.16 0.106-0.239 0.149-0.237v0c0.492 0.137 0.985 0.227 1.478 0.269 0.493 0.042 0.975 0.051 1.444 0.026v0c0.05 0.02 0.084 0.073 0.101 0.16 0.014 0.093 0.009 0.171-0.016 0.234v0c0 0-0.09 0.125-0.269 0.375-0.179 0.25-0.371 0.633-0.576 1.149v0l-2.622 6.614c0.189 0.002 0.461-0.051 0.817-0.157 0.358-0.113 0.747-0.24 1.167-0.38v0c0.645-0.211 1.18-0.385 1.607-0.522 0.429-0.144 0.66-0.259 0.695-0.347v0c0.04-0.101 0.008-0.194-0.097-0.279-0.105-0.085-0.223-0.165-0.354-0.239-0.131-0.074-0.228-0.123-0.291-0.148v0c-0.025-0.083-0.008-0.192 0.054-0.329 0.061-0.136 0.12-0.2 0.175-0.193v0c0.255 0.13 0.536 0.267 0.843 0.411 0.307 0.144 0.609 0.274 0.905 0.392v0c0.643 0.255 1.2 0.439 1.672 0.553v0c0.018 0.065-0.003 0.163-0.061 0.293-0.059 0.13-0.108 0.209-0.148 0.236v0c-0.132-0.052-0.368-0.102-0.707-0.149-0.339-0.047-0.636-0.041-0.893 0.018v0c-0.065 0.018-0.236 0.063-0.512 0.136-0.28 0.064-0.614 0.15-1 0.26-0.386 0.109-0.789 0.226-1.211 0.351-0.427 0.122-0.826 0.245-1.195 0.368v0c0.278 0.679 0.542 1.363 0.793 2.053 0.249 0.696 0.477 1.308 0.684 1.834 0.2 0.524 0.345 0.877 0.433 1.057v0c0.157 0.303 0.381 0.556 0.673 0.759 0.298 0.205 0.569 0.349 0.813 0.431v0c0.015 0.035 0.005 0.108-0.032 0.218-0.036 0.11-0.077 0.185-0.122 0.225v0c-0.073 0-0.234-0.035-0.483-0.105-0.256-0.072-0.509-0.158-0.761-0.258v0c-0.542-0.215-0.982-0.502-1.321-0.862-0.345-0.363-0.556-0.647-0.635-0.853v0c0 0-0.048-0.128-0.142-0.384-0.098-0.25-0.226-0.578-0.387-0.984-0.166-0.408-0.335-0.836-0.508-1.284-0.17-0.454-0.33-0.878-0.479-1.273v0c-0.018-0.065-0.058-0.129-0.122-0.19-0.063-0.061-0.095-0.092-0.094-0.092z" fill="#f6efd1" data-fill-palette-color="accent"></path><path d="M131.473 12.866v0c0.535 0.37 1.082 0.782 1.641 1.236 0.554 0.45 1.088 0.952 1.603 1.506v0c0 0-0.06 0.128-0.179 0.383-0.119 0.255-0.265 0.554-0.436 0.897-0.168 0.337-0.319 0.645-0.454 0.922-0.135 0.278-0.217 0.439-0.248 0.484v0c-0.02 0.052-0.084 0.074-0.193 0.064-0.109-0.009-0.208-0.045-0.297-0.107v0c-0.078-0.054-0.133-0.117-0.166-0.189v0c0.063-0.138 0.138-0.366 0.227-0.684 0.094-0.314 0.129-0.686 0.104-1.114-0.02-0.435-0.169-0.892-0.446-1.373-0.283-0.484-0.764-0.962-1.443-1.433v0c-0.607-0.421-1.25-0.664-1.93-0.73-0.685-0.07-1.365 0.007-2.04 0.231-0.671 0.219-1.295 0.549-1.872 0.99-0.579 0.431-1.067 0.934-1.465 1.508v0c-0.44 0.635-0.785 1.323-1.035 2.065-0.252 0.732-0.376 1.471-0.372 2.215 0.007 0.739 0.176 1.441 0.506 2.106 0.321 0.667 0.84 1.25 1.559 1.748v0c0.501 0.347 0.984 0.566 1.449 0.657 0.463 0.082 0.884 0.098 1.265 0.048v0c0.524-0.066 0.984-0.225 1.381-0.477 0.396-0.262 0.714-0.507 0.955-0.736v0c0.205 0.109 0.347 0.273 0.426 0.493v0c-0.054 0.078-0.183 0.223-0.389 0.436-0.201 0.207-0.424 0.428-0.668 0.662-0.245 0.234-0.474 0.434-0.688 0.599-0.217 0.171-0.373 0.265-0.467 0.282v0c-0.621-0.067-1.258-0.237-1.911-0.508-0.659-0.275-1.367-0.675-2.124-1.199v0c-0.808-0.559-1.45-1.215-1.928-1.966-0.472-0.747-0.779-1.541-0.921-2.382-0.141-0.831-0.119-1.661 0.067-2.488 0.176-0.826 0.517-1.603 1.022-2.333v0c0.536-0.774 1.177-1.402 1.923-1.883 0.744-0.49 1.542-0.828 2.395-1.012 0.862-0.186 1.733-0.193 2.611-0.021 0.884 0.176 1.73 0.543 2.537 1.103z" fill="#f6efd1" data-fill-palette-color="accent"></path><path d="M135.673 30.936l6.474-5.993c0.109-0.101 0.241-0.228 0.396-0.38 0.15-0.148 0.251-0.283 0.303-0.405v0c0.073-0.141 0.043-0.312-0.088-0.514-0.136-0.207-0.296-0.409-0.48-0.609v0c-0.009-0.01 0.046-0.075 0.166-0.195 0.12-0.12 0.198-0.17 0.236-0.149v0c0.385 0.336 0.791 0.63 1.218 0.882 0.427 0.251 0.857 0.467 1.291 0.646v0c0.037 0.04 0.044 0.102 0.021 0.188-0.027 0.09-0.066 0.158-0.116 0.204v0c0 0-0.135 0.074-0.404 0.222-0.269 0.148-0.608 0.41-1.015 0.788v0l-6.96 6.442c-0.219 0.203-0.42 0.394-0.604 0.573-0.184 0.18-0.32 0.347-0.408 0.502v0c-0.031 0.066-0.009 0.179 0.066 0.341 0.075 0.161 0.172 0.321 0.291 0.479 0.119 0.158 0.205 0.267 0.26 0.326v0c-0.012 0.067-0.066 0.148-0.16 0.246-0.095 0.097-0.181 0.144-0.258 0.141v0c-0.256-0.317-0.483-0.596-0.679-0.839-0.201-0.248-0.436-0.515-0.703-0.804v0c-0.258-0.278-0.498-0.523-0.719-0.733-0.227-0.215-0.488-0.462-0.784-0.742v0c0.003-0.077 0.056-0.158 0.16-0.246 0.104-0.087 0.19-0.134 0.257-0.141v0c0.055 0.06 0.155 0.152 0.299 0.278 0.148 0.13 0.302 0.242 0.462 0.334 0.159 0.092 0.269 0.121 0.327 0.085v0c0.161-0.075 0.338-0.198 0.532-0.368 0.194-0.17 0.4-0.356 0.619-0.559z" fill="#f6efd1" data-fill-palette-color="accent"></path><path d="M145.348 44.454l3.642-2.266c0.012-0.007 0.035-0.021 0.069-0.043v0c0.115-0.072 0.252-0.165 0.412-0.281 0.16-0.115 0.282-0.239 0.367-0.372v0c0.111-0.181 0.116-0.391 0.014-0.631-0.102-0.24-0.188-0.418-0.26-0.533v0c0.009-0.037 0.066-0.093 0.172-0.166 0.106-0.074 0.192-0.108 0.26-0.102v0c0.295 0.423 0.597 0.818 0.904 1.184 0.312 0.373 0.607 0.68 0.885 0.922v0c0.029 0.046-0.004 0.122-0.097 0.228-0.094 0.106-0.163 0.174-0.209 0.203v0c-0.091 0.008-0.245 0.068-0.463 0.18-0.218 0.112-0.45 0.244-0.698 0.398v0l-3.555 2.213c-0.092 0.057-0.27 0.176-0.533 0.355-0.263 0.18-0.496 0.364-0.697 0.554v0c-0.122 0.124-0.125 0.305-0.009 0.544 0.12 0.244 0.21 0.428 0.271 0.55v0c0.036 0.058 0.057 0.092 0.064 0.103v0c0.003 0.03-0.017 0.062-0.059 0.097-0.042 0.034-0.075 0.059-0.098 0.073v0c-0.012 0.007-0.065 0.024-0.16 0.052-0.095 0.027-0.157 0.018-0.185-0.029v0c-0.194-0.286-0.437-0.574-0.729-0.863-0.292-0.289-0.55-0.531-0.775-0.727-0.229-0.201-0.347-0.307-0.354-0.318v0c-0.029-0.046-0.018-0.1 0.03-0.163 0.049-0.062 0.102-0.111 0.16-0.147v0l0.785-0.489c0.046-0.029 0.068-0.051 0.067-0.065-0.001-0.015-0.002-0.023-0.002-0.023v0c-0.26-0.046-0.561-0.145-0.904-0.299-0.343-0.154-0.671-0.353-0.983-0.598-0.308-0.239-0.552-0.502-0.731-0.79v0c-0.279-0.449-0.4-0.88-0.363-1.294 0.041-0.409 0.188-0.795 0.44-1.16 0.246-0.361 0.549-0.689 0.908-0.984 0.365-0.299 0.725-0.559 1.082-0.781v0l2.149-1.337c0.115-0.072 0.261-0.17 0.438-0.297 0.177-0.126 0.31-0.265 0.399-0.416v0c0.111-0.181 0.114-0.394 0.009-0.64-0.102-0.24-0.188-0.418-0.26-0.533v0c0.009-0.037 0.066-0.093 0.172-0.166 0.106-0.074 0.192-0.108 0.26-0.102v0c0.299 0.429 0.602 0.826 0.91 1.193 0.308 0.367 0.601 0.671 0.879 0.913v0c0.029 0.046 0.011 0.121-0.052 0.224-0.067 0.098-0.123 0.161-0.169 0.19v0c-0.091 0.008-0.258 0.073-0.503 0.193-0.248 0.114-0.496 0.249-0.743 0.402v0l-2.494 1.552c-0.903 0.562-1.479 1.112-1.727 1.65-0.257 0.535-0.204 1.096 0.162 1.683v0c0.161 0.259 0.365 0.471 0.612 0.637 0.241 0.169 0.485 0.285 0.731 0.347 0.246 0.062 0.433 0.054 0.559-0.025z" fill="#f6efd1" data-fill-palette-color="accent"></path><path d="M149.023 57.675v0c-0.049-0.141-0.089-0.367-0.119-0.68-0.033-0.319-0.059-0.59-0.08-0.812v0c-0.001-0.043-0.006-0.098-0.015-0.167v0c-0.007-0.184-0.026-0.371-0.057-0.562-0.031-0.19-0.109-0.364-0.236-0.52v0c-0.018-0.051 0.017-0.125 0.106-0.22 0.089-0.096 0.158-0.152 0.21-0.171v0c0.223 0.022 0.478 0.001 0.764-0.063 0.28-0.062 0.516-0.127 0.707-0.193v0l8.442-2.955c0.128-0.045 0.296-0.107 0.505-0.188 0.202-0.078 0.352-0.163 0.45-0.254v0c0.123-0.1 0.162-0.276 0.117-0.526-0.042-0.244-0.108-0.493-0.197-0.749v0c-0.004-0.013 0.072-0.05 0.229-0.113 0.158-0.062 0.25-0.077 0.276-0.042v0c0.217 0.455 0.473 0.89 0.769 1.303 0.293 0.407 0.602 0.776 0.926 1.108v0c0.018 0.051 0 0.111-0.055 0.181-0.059 0.078-0.12 0.128-0.184 0.15v0c0 0-0.154 0.011-0.463 0.033-0.306 0.028-0.721 0.134-1.246 0.318v0l-3.703 1.296c-0.051 0.018-0.106 0.044-0.166 0.079-0.059 0.035-0.055 0.069 0.015 0.103v0c0.115 0.082 0.299 0.229 0.553 0.442 0.254 0.213 0.507 0.454 0.76 0.724 0.253 0.271 0.42 0.524 0.503 0.761v0c0.197 0.563 0.252 1.1 0.165 1.611-0.084 0.518-0.265 0.987-0.541 1.407-0.283 0.422-0.626 0.786-1.028 1.092-0.403 0.306-0.818 0.534-1.247 0.684v0c-0.819 0.287-1.644 0.349-2.476 0.188-0.825-0.163-1.569-0.524-2.231-1.082-0.653-0.554-1.138-1.282-1.453-2.183zM156.402 55.436v0c-0.085-0.243-0.24-0.49-0.464-0.742-0.231-0.249-0.408-0.406-0.531-0.471v0c-0.086-0.042-0.168-0.049-0.245-0.022v0l-4.566 1.599c-0.269 0.094-0.473 0.27-0.613 0.526-0.148 0.253-0.23 0.533-0.244 0.84-0.015 0.307 0.025 0.594 0.119 0.863v0c0.159 0.454 0.461 0.815 0.906 1.082 0.452 0.265 0.958 0.429 1.518 0.492 0.562 0.069 1.096 0.015 1.602-0.162v0c1.094-0.383 1.858-0.937 2.293-1.664 0.444-0.722 0.519-1.502 0.225-2.341z" fill="#f6efd1" data-fill-palette-color="accent"></path><path d="M19.346 106.192v0c0.227 0.646 0.439 1.329 0.636 2.05 0.19 0.723 0.332 1.474 0.426 2.252v0c0 0-0.128 0.074-0.385 0.222-0.259 0.142-0.564 0.306-0.914 0.494-0.346 0.179-0.665 0.345-0.956 0.499-0.282 0.157-0.449 0.244-0.5 0.262v0c-0.053 0.033-0.122 0.011-0.207-0.067-0.091-0.076-0.155-0.165-0.191-0.267v0c-0.034-0.096-0.041-0.187-0.021-0.273v0c0.138-0.077 0.342-0.221 0.613-0.431 0.273-0.204 0.533-0.497 0.78-0.878 0.24-0.379 0.391-0.86 0.451-1.441 0.061-0.582-0.053-1.282-0.341-2.1v0c-0.254-0.722-0.649-1.323-1.184-1.803-0.539-0.471-1.161-0.819-1.866-1.045-0.705-0.226-1.435-0.332-2.191-0.317-0.756 0.015-1.476 0.143-2.16 0.383v0c-0.767 0.27-1.484 0.641-2.151 1.113-0.661 0.47-1.217 1.021-1.67 1.655-0.446 0.631-0.735 1.329-0.868 2.094-0.129 0.757-0.041 1.566 0.263 2.429v0c0.212 0.601 0.484 1.079 0.818 1.436 0.336 0.363 0.682 0.64 1.036 0.832v0c0.489 0.266 0.978 0.41 1.467 0.431 0.489 0.022 0.909 0.01 1.259-0.034v0c0.104 0.215 0.123 0.442 0.057 0.681v0c-0.096 0.034-0.293 0.075-0.593 0.122-0.297 0.054-0.62 0.107-0.968 0.158-0.357 0.047-0.678 0.074-0.963 0.081-0.283 0.013-0.468-0.004-0.557-0.052v0c-0.483-0.433-0.918-0.966-1.306-1.598-0.394-0.63-0.752-1.402-1.074-2.316v0c-0.34-0.965-0.479-1.911-0.418-2.838 0.062-0.927 0.287-1.786 0.677-2.576 0.387-0.797 0.913-1.489 1.576-2.075 0.663-0.585 1.429-1.031 2.298-1.337v0c0.927-0.326 1.853-0.469 2.78-0.429 0.929 0.047 1.813 0.252 2.652 0.617 0.84 0.365 1.582 0.891 2.226 1.577 0.64 0.694 1.129 1.524 1.469 2.489z" fill="#f6efd1" data-fill-palette-color="accent"></path><path d="M22.364 122.306v0c0.508 0.769 0.778 1.541 0.81 2.315 0.032 0.774-0.135 1.498-0.503 2.171-0.369 0.682-0.916 1.263-1.64 1.741v0c-0.752 0.497-1.534 0.782-2.346 0.855-0.812 0.074-1.577-0.051-2.293-0.373-0.72-0.328-1.312-0.843-1.775-1.544v0c-0.5-0.758-0.768-1.531-0.802-2.321-0.034-0.789 0.138-1.524 0.517-2.205 0.375-0.686 0.924-1.268 1.648-1.746v0c0.746-0.493 1.525-0.771 2.335-0.836 0.81-0.064 1.571 0.067 2.282 0.393 0.715 0.332 1.303 0.849 1.767 1.55zM21.649 122.497v0c-0.321-0.486-0.728-0.782-1.219-0.887-0.483-0.104-0.996-0.069-1.54 0.103-0.548 0.167-1.07 0.414-1.567 0.743v0c-0.56 0.37-1.058 0.833-1.495 1.389-0.431 0.553-0.711 1.131-0.839 1.736-0.129 0.605-0.021 1.167 0.323 1.687v0c0.329 0.498 0.734 0.798 1.216 0.902 0.479 0.098 0.993 0.059 1.543-0.118 0.55-0.176 1.067-0.425 1.553-0.746v0c0.571-0.377 1.072-0.842 1.503-1.394 0.421-0.554 0.701-1.133 0.839-1.736 0.132-0.599 0.027-1.158-0.317-1.679z" fill="#f6efd1" data-fill-palette-color="accent"></path><path d="M32.621 134.329v0c0.664 0.638 1.098 1.332 1.3 2.081 0.202 0.748 0.197 1.491-0.013 2.228-0.21 0.747-0.616 1.433-1.217 2.059v0c-0.624 0.65-1.325 1.1-2.101 1.35-0.776 0.25-1.549 0.297-2.319 0.14-0.775-0.162-1.465-0.534-2.071-1.116v0c-0.655-0.629-1.086-1.325-1.293-2.088-0.207-0.763-0.2-1.518 0.02-2.265 0.215-0.752 0.623-1.441 1.224-2.066v0c0.62-0.645 1.318-1.088 2.094-1.328 0.776-0.241 1.547-0.28 2.312-0.118 0.77 0.167 1.458 0.541 2.064 1.123zM31.967 134.673v0c-0.42-0.404-0.882-0.603-1.385-0.598-0.493 0.005-0.987 0.151-1.479 0.439-0.498 0.283-0.953 0.64-1.366 1.07v0c-0.465 0.484-0.849 1.045-1.153 1.684-0.299 0.634-0.445 1.26-0.437 1.877 0.008 0.618 0.236 1.143 0.686 1.575v0c0.43 0.413 0.892 0.617 1.385 0.612 0.489-0.01 0.982-0.161 1.479-0.453 0.497-0.293 0.948-0.649 1.351-1.07v0c0.474-0.493 0.861-1.057 1.16-1.69 0.289-0.634 0.435-1.259 0.437-1.878-0.003-0.613-0.229-1.136-0.678-1.568z" fill="#f6efd1" data-fill-palette-color="accent"></path><path d="M41.177 147.025l-0.937 1.583c-0.159 0.268-0.304 0.521-0.437 0.757-0.132 0.237-0.215 0.443-0.249 0.62v0c-0.011 0.072 0.043 0.179 0.164 0.322 0.124 0.136 0.271 0.267 0.442 0.391 0.165 0.121 0.285 0.204 0.36 0.249v0c0.004 0.073-0.027 0.173-0.094 0.299-0.067 0.126-0.137 0.198-0.211 0.217v0c-0.354-0.241-0.665-0.453-0.935-0.636-0.275-0.187-0.591-0.385-0.946-0.595v0c-0.338-0.2-0.652-0.374-0.943-0.523-0.284-0.145-0.617-0.314-0.998-0.508v0c-0.019-0.074 0.011-0.171 0.089-0.29 0.078-0.119 0.15-0.194 0.216-0.226v0c0.076 0.045 0.203 0.109 0.383 0.191 0.185 0.086 0.37 0.152 0.556 0.199 0.189 0.041 0.306 0.035 0.352-0.016v0c0.139-0.115 0.28-0.287 0.424-0.517 0.144-0.23 0.295-0.479 0.454-0.747v0l4.7-7.942c0.079-0.134 0.171-0.296 0.276-0.486 0.108-0.196 0.169-0.365 0.182-0.507v0c0.033-0.162-0.048-0.324-0.244-0.487-0.195-0.163-0.415-0.317-0.66-0.461v0c-0.012-0.007 0.026-0.091 0.114-0.252 0.084-0.155 0.147-0.228 0.189-0.219v0c0.482 0.223 0.977 0.397 1.484 0.525 0.505 0.118 0.997 0.204 1.477 0.259v0c0.052 0.031 0.078 0.094 0.077 0.188 0.003 0.088-0.015 0.165-0.052 0.229v0c0 0-0.111 0.115-0.335 0.345-0.229 0.227-0.491 0.591-0.788 1.093v0l-3.784 6.394c0.198 0.038 0.49 0.03 0.877-0.025 0.387-0.055 0.807-0.12 1.262-0.198v0c0.698-0.115 1.28-0.207 1.747-0.277 0.461-0.074 0.717-0.154 0.769-0.241v0c0.059-0.099 0.04-0.201-0.056-0.305-0.096-0.104-0.204-0.207-0.324-0.31-0.124-0.097-0.215-0.163-0.274-0.197v0c-0.018-0.089 0.016-0.199 0.101-0.33 0.085-0.131 0.159-0.189 0.222-0.176v0c0.239 0.181 0.505 0.37 0.799 0.567 0.299 0.2 0.588 0.383 0.868 0.549v0c0.624 0.369 1.171 0.65 1.64 0.841v0c0.004 0.073-0.035 0.172-0.117 0.297-0.082 0.125-0.145 0.198-0.189 0.219v0c-0.122-0.072-0.358-0.161-0.706-0.264-0.339-0.106-0.649-0.148-0.929-0.125v0c-0.067 0.007-0.249 0.022-0.546 0.043-0.296 0.022-0.653 0.059-1.069 0.111-0.417 0.052-0.855 0.108-1.315 0.167-0.454 0.062-0.884 0.123-1.289 0.182v0c0.172 0.747 0.333 1.5 0.482 2.258 0.144 0.754 0.278 1.42 0.401 1.996 0.123 0.577 0.216 0.966 0.277 1.168v0c0.119 0.33 0.314 0.627 0.584 0.889 0.264 0.259 0.518 0.448 0.762 0.569v0c0.006 0.043-0.019 0.119-0.075 0.227-0.053 0.103-0.106 0.173-0.161 0.212v0c-0.072-0.011-0.232-0.074-0.479-0.189-0.247-0.115-0.493-0.245-0.738-0.389v0c-0.531-0.314-0.942-0.683-1.234-1.108-0.288-0.431-0.457-0.758-0.504-0.984v0c0 0-0.033-0.138-0.099-0.412-0.056-0.277-0.134-0.638-0.233-1.083-0.096-0.45-0.199-0.921-0.31-1.412-0.102-0.493-0.198-0.956-0.289-1.388v0c-0.013-0.071-0.044-0.144-0.093-0.22-0.059-0.074-0.088-0.111-0.088-0.111z" fill="#f6efd1" data-fill-palette-color="accent"></path><path d="M62.225 146.196v0c0.445 0.142 0.892 0.338 1.339 0.586 0.438 0.254 0.818 0.556 1.14 0.908 0.324 0.345 0.548 0.747 0.672 1.206 0.124 0.459 0.095 0.973-0.086 1.541v0c-0.161 0.504-0.425 0.921-0.794 1.251-0.368 0.331-0.752 0.575-1.15 0.732-0.405 0.155-0.735 0.242-0.99 0.261v0c-0.055 0.018-0.065 0.047-0.028 0.087v0c0.235 0.089 0.493 0.26 0.775 0.513 0.275 0.251 0.53 0.567 0.765 0.948 0.228 0.378 0.379 0.796 0.453 1.254 0.081 0.46 0.043 0.935-0.113 1.426v0c-0.181 0.568-0.446 1.063-0.793 1.486-0.357 0.427-0.845 0.765-1.465 1.015v0c-0.597 0.244-1.307 0.319-2.132 0.228-0.818-0.09-1.609-0.25-2.375-0.48v0l-4.581-1.46c-0.035-0.068-0.028-0.169 0.022-0.302 0.05-0.134 0.103-0.223 0.16-0.269v0c0.084 0.027 0.239 0.065 0.465 0.116 0.219 0.049 0.437 0.079 0.654 0.091 0.212 0.004 0.335-0.025 0.368-0.085v0c0.11-0.143 0.209-0.342 0.298-0.599 0.089-0.256 0.18-0.533 0.275-0.83v0l2.704-8.483c0.095-0.297 0.181-0.579 0.258-0.845 0.078-0.267 0.114-0.49 0.107-0.67v0c0.014-0.088-0.07-0.182-0.251-0.283-0.186-0.109-0.382-0.207-0.589-0.295-0.213-0.089-0.362-0.147-0.446-0.174v0c-0.022-0.064-0.015-0.165 0.022-0.302 0.037-0.138 0.09-0.227 0.16-0.269v0c0.403 0.143 0.797 0.289 1.183 0.441 0.388 0.145 0.772 0.278 1.152 0.399v0c0.394 0.126 0.816 0.253 1.266 0.382 0.456 0.131 0.975 0.289 1.555 0.475zM59.396 152.462l-1.201-0.382-1.374 4.309c-0.029 0.09-0.072 0.237-0.129 0.439-0.055 0.196-0.096 0.389-0.121 0.58-0.03 0.183-0.033 0.306-0.011 0.37v0c0.095 0.215 0.269 0.384 0.521 0.507 0.252 0.123 0.563 0.243 0.93 0.361v0c0.497 0.158 1.011 0.241 1.543 0.246 0.532 0.006 1.027-0.153 1.486-0.476 0.459-0.323 0.815-0.885 1.07-1.685v0c0.161-0.504 0.221-1.018 0.182-1.542-0.037-0.531-0.274-1.037-0.711-1.518-0.437-0.481-1.166-0.884-2.185-1.209zM59.525 147.906l-1.089 3.418 1.646 0.525c0.6 0.191 1.118 0.228 1.554 0.111 0.442-0.115 0.804-0.323 1.085-0.625 0.29-0.306 0.495-0.649 0.616-1.03v0c0.28-0.878 0.216-1.649-0.191-2.312-0.416-0.659-1.082-1.134-1.999-1.426v0c-0.123-0.039-0.312-0.092-0.568-0.16-0.256-0.067-0.419-0.059-0.488 0.026v0c-0.078 0.089-0.157 0.249-0.238 0.479-0.081 0.23-0.162 0.475-0.245 0.732v0c-0.016 0.052-0.031 0.097-0.043 0.136-0.014 0.045-0.028 0.087-0.04 0.126z" fill="#f6efd1" data-fill-palette-color="accent"></path><path d="M77.042 153.536v0c0.919 0.069 1.695 0.327 2.327 0.775 0.632 0.448 1.103 1.023 1.41 1.726 0.314 0.71 0.439 1.497 0.374 2.362v0c-0.067 0.899-0.32 1.692-0.758 2.379-0.439 0.688-1.005 1.216-1.698 1.586-0.7 0.369-1.469 0.522-2.307 0.46v0c-0.905-0.068-1.681-0.329-2.327-0.785-0.645-0.456-1.122-1.042-1.428-1.758-0.313-0.716-0.438-1.507-0.373-2.372v0c0.067-0.892 0.322-1.678 0.767-2.358 0.445-0.68 1.014-1.202 1.706-1.565 0.7-0.362 1.468-0.512 2.307-0.45zM76.757 154.218v0c-0.581-0.043-1.064 0.097-1.449 0.422-0.377 0.318-0.664 0.745-0.86 1.281-0.203 0.535-0.327 1.1-0.371 1.695v0c-0.05 0.669 0.012 1.346 0.185 2.032 0.174 0.679 0.46 1.254 0.86 1.726 0.4 0.471 0.91 0.73 1.532 0.776v0c0.595 0.044 1.08-0.093 1.458-0.411 0.37-0.319 0.654-0.75 0.85-1.292 0.197-0.542 0.317-1.104 0.36-1.685v0c0.051-0.682-0.01-1.363-0.184-2.042-0.181-0.673-0.468-1.248-0.86-1.726-0.393-0.471-0.9-0.73-1.521-0.776z" fill="#f6efd1" data-fill-palette-color="accent"></path><path d="M92.829 152.777v0c0.912-0.135 1.725-0.053 2.441 0.245 0.715 0.298 1.3 0.756 1.755 1.374 0.462 0.623 0.757 1.364 0.883 2.222v0c0.132 0.891 0.06 1.721-0.217 2.487-0.277 0.767-0.713 1.407-1.308 1.92-0.602 0.514-1.319 0.832-2.15 0.956v0c-0.898 0.133-1.712 0.048-2.442-0.255-0.73-0.303-1.323-0.77-1.78-1.402-0.463-0.63-0.758-1.374-0.885-2.232v0c-0.131-0.885-0.054-1.708 0.23-2.469 0.285-0.761 0.725-1.395 1.322-1.901 0.603-0.507 1.32-0.822 2.151-0.945zM92.701 153.505v0c-0.576 0.085-1.016 0.329-1.32 0.729-0.298 0.393-0.484 0.873-0.558 1.439-0.081 0.567-0.077 1.145 0.01 1.735v0c0.098 0.664 0.307 1.311 0.627 1.942 0.318 0.624 0.724 1.122 1.217 1.494 0.493 0.372 1.049 0.513 1.666 0.422v0c0.59-0.087 1.034-0.328 1.331-0.722 0.291-0.392 0.473-0.875 0.546-1.447 0.073-0.572 0.067-1.147-0.018-1.723v0c-0.1-0.677-0.31-1.328-0.628-1.952-0.324-0.616-0.73-1.115-1.218-1.494-0.487-0.373-1.038-0.514-1.655-0.423z" fill="#f6efd1" data-fill-palette-color="accent"></path><path d="M108.106 153.777l0.679 1.71c0.115 0.29 0.226 0.559 0.332 0.808 0.106 0.249 0.219 0.442 0.338 0.577v0c0.05 0.053 0.168 0.075 0.355 0.066 0.184-0.015 0.377-0.051 0.58-0.11 0.196-0.056 0.336-0.101 0.417-0.133v0c0.06 0.042 0.12 0.127 0.179 0.258 0.059 0.13 0.073 0.23 0.043 0.3v0c-0.407 0.132-0.765 0.249-1.075 0.35-0.316 0.104-0.666 0.232-1.05 0.385v0c-0.365 0.145-0.695 0.287-0.99 0.426-0.288 0.136-0.626 0.296-1.013 0.479v0c-0.07-0.03-0.129-0.113-0.175-0.248-0.046-0.135-0.062-0.238-0.047-0.31v0c0.082-0.033 0.21-0.095 0.386-0.186 0.181-0.094 0.347-0.2 0.497-0.317 0.148-0.124 0.215-0.22 0.203-0.289v0c-0.006-0.18-0.056-0.397-0.15-0.651-0.094-0.254-0.198-0.526-0.313-0.816v0l-3.408-8.577c-0.058-0.145-0.13-0.317-0.216-0.516-0.089-0.205-0.185-0.357-0.289-0.453v0c-0.108-0.125-0.286-0.16-0.534-0.105-0.248 0.055-0.504 0.135-0.769 0.239v0c-0.013 0.005-0.056-0.076-0.129-0.243-0.071-0.161-0.091-0.256-0.058-0.284v0c0.471-0.246 0.912-0.53 1.323-0.853 0.402-0.327 0.772-0.664 1.108-1.009v0c0.057-0.023 0.122-0.005 0.196 0.053 0.072 0.052 0.121 0.112 0.149 0.181v0c0 0 0.023 0.159 0.069 0.476 0.04 0.32 0.167 0.75 0.382 1.292v0l2.743 6.905c0.151-0.133 0.324-0.369 0.517-0.709 0.193-0.339 0.399-0.713 0.616-1.119v0c0.336-0.622 0.619-1.139 0.849-1.552 0.224-0.41 0.317-0.662 0.279-0.756v0c-0.043-0.107-0.134-0.154-0.275-0.142-0.141 0.012-0.289 0.035-0.443 0.067-0.152 0.039-0.26 0.07-0.323 0.095v0c-0.082-0.04-0.148-0.134-0.2-0.281-0.051-0.147-0.052-0.242-0.003-0.283v0c0.29-0.079 0.602-0.173 0.937-0.285 0.341-0.114 0.663-0.231 0.965-0.351v0c0.674-0.268 1.23-0.529 1.668-0.783v0c0.06 0.042 0.115 0.133 0.164 0.274 0.049 0.141 0.068 0.235 0.058 0.283v0c-0.132 0.053-0.346 0.185-0.641 0.397-0.291 0.203-0.514 0.423-0.668 0.659v0c-0.035 0.058-0.135 0.21-0.299 0.458-0.164 0.247-0.353 0.552-0.566 0.914-0.213 0.362-0.438 0.743-0.673 1.142-0.229 0.397-0.443 0.774-0.644 1.131v0c0.696 0.321 1.39 0.654 2.081 1 0.685 0.348 1.293 0.649 1.825 0.904 0.532 0.255 0.896 0.42 1.093 0.496v0c0.334 0.108 0.688 0.135 1.061 0.081 0.366-0.051 0.672-0.136 0.916-0.254v0c0.038 0.021 0.082 0.088 0.133 0.198 0.049 0.105 0.072 0.19 0.07 0.257v0c-0.053 0.05-0.2 0.138-0.443 0.263-0.242 0.125-0.495 0.24-0.759 0.346v0c-0.573 0.228-1.117 0.327-1.632 0.298-0.517-0.035-0.879-0.103-1.086-0.203v0c0 0-0.129-0.058-0.387-0.174-0.254-0.125-0.587-0.284-0.999-0.478-0.415-0.2-0.85-0.406-1.306-0.618-0.452-0.221-0.877-0.428-1.275-0.621v0c-0.064-0.033-0.141-0.053-0.232-0.061-0.094 0.001-0.142 0.002-0.141 0.002z" fill="#f6efd1" data-fill-palette-color="accent"></path><path d="M121.102 135.822v0c0.562-0.39 1.165-0.775 1.809-1.155 0.647-0.375 1.334-0.71 2.06-1.007v0c0 0 0.105 0.104 0.315 0.313 0.205 0.212 0.445 0.463 0.719 0.751 0.265 0.287 0.509 0.55 0.733 0.79 0.226 0.231 0.354 0.369 0.386 0.413v0c0.046 0.042 0.043 0.115-0.01 0.217-0.049 0.108-0.118 0.193-0.207 0.255v0c-0.084 0.058-0.169 0.089-0.258 0.092v0c-0.111-0.113-0.304-0.272-0.578-0.477-0.269-0.209-0.62-0.382-1.053-0.52-0.429-0.131-0.932-0.149-1.509-0.054-0.577 0.095-1.222 0.39-1.935 0.884v0c-0.629 0.436-1.104 0.976-1.425 1.619-0.312 0.645-0.483 1.337-0.515 2.076-0.032 0.739 0.06 1.472 0.274 2.197 0.214 0.725 0.528 1.386 0.941 1.982v0c0.463 0.668 1.011 1.262 1.642 1.78 0.628 0.513 1.307 0.904 2.038 1.172 0.727 0.263 1.476 0.357 2.249 0.284 0.764-0.076 1.521-0.375 2.273-0.896v0c0.523-0.363 0.913-0.753 1.169-1.169 0.261-0.42 0.437-0.827 0.527-1.219v0c0.127-0.542 0.137-1.051 0.029-1.529-0.108-0.477-0.23-0.879-0.366-1.205v0c0.179-0.157 0.393-0.236 0.641-0.235v0c0.058 0.084 0.15 0.263 0.275 0.539 0.131 0.272 0.267 0.569 0.408 0.892 0.14 0.332 0.25 0.634 0.332 0.908 0.088 0.269 0.12 0.453 0.098 0.551v0c-0.29 0.58-0.689 1.141-1.196 1.682-0.503 0.547-1.153 1.096-1.949 1.648v0c-0.841 0.583-1.716 0.967-2.626 1.153-0.91 0.186-1.798 0.195-2.664 0.029-0.871-0.163-1.677-0.486-2.417-0.971-0.74-0.485-1.373-1.106-1.898-1.863v0c-0.56-0.807-0.943-1.663-1.149-2.567-0.201-0.908-0.236-1.815-0.106-2.722 0.13-0.906 0.441-1.761 0.931-2.562 0.5-0.8 1.171-1.492 2.012-2.076z" fill="#f6efd1" data-fill-palette-color="accent"></path><path d="M138.655 135.758l-6.77-6.272c-0.114-0.106-0.253-0.23-0.417-0.373-0.169-0.147-0.321-0.242-0.456-0.285v0c-0.151-0.066-0.327-0.021-0.527 0.136-0.2 0.156-0.397 0.339-0.591 0.547v0c-0.009 0.01-0.083-0.045-0.222-0.164-0.134-0.115-0.192-0.192-0.174-0.231v0c0.319-0.425 0.595-0.871 0.826-1.34 0.222-0.469 0.41-0.931 0.566-1.388v0c0.041-0.045 0.108-0.057 0.2-0.037 0.087 0.016 0.158 0.049 0.212 0.1v0c0 0 0.089 0.133 0.267 0.4 0.173 0.271 0.474 0.605 0.901 1.001v0l7.269 6.736c0.229 0.212 0.445 0.407 0.648 0.586 0.203 0.179 0.388 0.304 0.554 0.375v0c0.068 0.026 0.184-0.005 0.349-0.093 0.16-0.092 0.318-0.209 0.476-0.349 0.153-0.135 0.26-0.235 0.319-0.299v0c0.072 0.012 0.163 0.063 0.272 0.155 0.109 0.092 0.165 0.176 0.168 0.252v0c-0.31 0.295-0.583 0.554-0.819 0.779-0.241 0.23-0.501 0.496-0.782 0.8v0c-0.267 0.288-0.504 0.559-0.71 0.811-0.202 0.247-0.437 0.537-0.708 0.868v0c-0.077 0.003-0.165-0.046-0.264-0.148-0.1-0.102-0.158-0.188-0.176-0.259v0c0.06-0.065 0.149-0.176 0.268-0.334 0.123-0.163 0.227-0.33 0.312-0.501 0.08-0.176 0.099-0.291 0.059-0.348v0c-0.083-0.16-0.221-0.334-0.416-0.523-0.194-0.189-0.406-0.39-0.634-0.602z" fill="#f6efd1" data-fill-palette-color="accent"></path><path d="M149.168 121.911l-3.799-2.379c-0.011-0.007-0.037-0.023-0.078-0.048v0c-0.121-0.076-0.271-0.161-0.45-0.258-0.185-0.1-0.358-0.156-0.518-0.169v0c-0.217-0.024-0.414 0.068-0.593 0.277-0.184 0.205-0.314 0.367-0.389 0.487v0c-0.037 0.009-0.115-0.02-0.234-0.086-0.118-0.066-0.19-0.131-0.214-0.194v0c0.265-0.474 0.497-0.94 0.696-1.399 0.209-0.461 0.361-0.877 0.458-1.248v0c0.032-0.052 0.12-0.057 0.262-0.016 0.142 0.041 0.236 0.076 0.282 0.104v0c0.053 0.081 0.183 0.199 0.391 0.353 0.207 0.154 0.438 0.31 0.69 0.468v0l3.704 2.32c0.098 0.061 0.291 0.174 0.58 0.338 0.294 0.168 0.577 0.305 0.846 0.41v0c0.169 0.05 0.338-0.036 0.509-0.257 0.17-0.221 0.299-0.388 0.386-0.501v0c0.036-0.057 0.058-0.092 0.065-0.104v0c0.026-0.016 0.066-0.01 0.121 0.016 0.05 0.023 0.086 0.042 0.109 0.057v0c0.017 0.011 0.059 0.053 0.125 0.126 0.072 0.077 0.093 0.138 0.064 0.184v0c-0.179 0.312-0.337 0.672-0.473 1.082-0.143 0.406-0.253 0.761-0.331 1.064-0.078 0.303-0.12 0.46-0.127 0.472v0c-0.029 0.046-0.087 0.062-0.174 0.048-0.078-0.017-0.148-0.045-0.211-0.085v0l-0.81-0.507c-0.052-0.032-0.084-0.045-0.097-0.036-0.013 0.008-0.019 0.012-0.019 0.011v0c0.075 0.263 0.117 0.593 0.124 0.99 0.017 0.394-0.017 0.793-0.101 1.195-0.081 0.397-0.216 0.748-0.407 1.053v0c-0.295 0.471-0.644 0.78-1.048 0.926-0.407 0.153-0.838 0.195-1.291 0.128-0.453-0.068-0.902-0.201-1.345-0.399-0.446-0.207-0.855-0.428-1.229-0.661v0l-2.24-1.403c-0.121-0.076-0.282-0.169-0.484-0.279-0.197-0.107-0.387-0.167-0.572-0.178v0c-0.22-0.018-0.418 0.074-0.593 0.276-0.184 0.205-0.314 0.367-0.389 0.488v0c-0.041 0.014-0.121-0.012-0.239-0.078-0.118-0.066-0.188-0.134-0.209-0.203v0c0.261-0.468 0.493-0.934 0.696-1.399 0.205-0.455 0.358-0.871 0.458-1.248v0c0.029-0.046 0.106-0.061 0.232-0.046 0.123 0.021 0.207 0.046 0.253 0.074v0c0.053 0.081 0.193 0.209 0.42 0.383 0.223 0.18 0.461 0.349 0.714 0.507v0l2.602 1.629c0.942 0.59 1.724 0.879 2.346 0.869 0.613-0.008 1.111-0.319 1.496-0.934v0c0.165-0.264 0.272-0.549 0.319-0.855 0.048-0.306 0.046-0.591-0.004-0.854-0.054-0.258-0.148-0.428-0.28-0.511z" fill="#f6efd1" data-fill-palette-color="accent"></path><path d="M157.53 109.471v0c-0.052 0.147-0.171 0.36-0.356 0.64-0.177 0.275-0.332 0.511-0.466 0.708v0c-0.026 0.034-0.057 0.08-0.093 0.14v0c-0.114 0.161-0.224 0.327-0.327 0.498-0.097 0.174-0.145 0.369-0.143 0.586v0c-0.018 0.051-0.096 0.088-0.234 0.111-0.135 0.017-0.232 0.015-0.289-0.005v0c-0.164-0.166-0.381-0.315-0.651-0.446-0.27-0.131-0.507-0.233-0.711-0.306v0l-8.815-3.119c-0.134-0.047-0.308-0.105-0.521-0.174-0.219-0.07-0.399-0.102-0.538-0.093v0c-0.167 0.005-0.313 0.123-0.437 0.352-0.122 0.223-0.23 0.468-0.326 0.736v0c-0.007 0.019-0.098 0.001-0.272-0.053-0.168-0.052-0.251-0.103-0.248-0.152v0c0.123-0.51 0.199-1.029 0.228-1.558 0.02-0.525 0.013-1.031-0.023-1.518v0c0.018-0.051 0.073-0.085 0.165-0.103 0.088-0.026 0.168-0.027 0.238-0.002v0c0 0 0.133 0.09 0.4 0.271 0.269 0.174 0.678 0.359 1.228 0.553v0l3.861 1.366c0.057 0.02 0.12 0.035 0.189 0.046 0.075 0.012 0.092-0.018 0.053-0.089v0c-0.038-0.136-0.091-0.373-0.157-0.714-0.073-0.342-0.123-0.708-0.15-1.099-0.029-0.384-0.001-0.698 0.085-0.94v0c0.208-0.588 0.517-1.064 0.926-1.43 0.407-0.359 0.862-0.618 1.364-0.778 0.505-0.166 1.02-0.243 1.548-0.229 0.533 0.016 1.02 0.102 1.461 0.258v0c0.862 0.305 1.577 0.795 2.143 1.47 0.566 0.675 0.933 1.455 1.101 2.342 0.177 0.882 0.099 1.792-0.233 2.731zM150.053 106.469v0c-0.09 0.256-0.126 0.559-0.107 0.911 0.019 0.352 0.06 0.593 0.122 0.722v0c0.041 0.086 0.103 0.144 0.186 0.174v0l4.762 1.686c0.281 0.099 0.563 0.095 0.846-0.014 0.283-0.108 0.531-0.283 0.746-0.523 0.21-0.249 0.365-0.514 0.464-0.795v0c0.165-0.466 0.155-0.955-0.03-1.466-0.192-0.514-0.494-0.98-0.907-1.399-0.419-0.421-0.89-0.725-1.414-0.91v0c-1.137-0.402-2.122-0.453-2.954-0.151-0.833 0.302-1.404 0.89-1.714 1.765z" fill="#f6efd1" data-fill-palette-color="accent"></path><path d="M0 81.929c0-2.923 2.369-5.292 5.292-5.292 2.923 0 5.292 2.369 5.292 5.292 0 2.923-2.369 5.292-5.292 5.291-2.923 0-5.292-2.369-5.292-5.291z" fill="#f6efd1" data-fill-palette-color="accent"></path><path d="M152.455 81.929c0-2.923 2.369-5.292 5.292-5.292 2.923 0 5.292 2.369 5.292 5.292 0 2.923-2.369 5.292-5.292 5.291-2.923 0-5.292-2.369-5.292-5.291z" fill="#f6efd1" data-fill-palette-color="accent"></path></g><g id="text-1"></g></svg></g></svg></g></svg></g><defs></defs></svg><rect width="395.52" height="110.20207591705334" fill="none" stroke="none" visibility="hidden"></rect></g></svg></g></svg>